<?xml version="1.0" encoding="UTF-8" standalone="no"?>
<svg xmlns:rdf="http://www.w3.org/1999/02/22-rdf-syntax-ns#" xmlns="http://www.w3.org/2000/svg" viewBox="0 0 463.00146 240.89961" height="240.9" width="463" version="1.1" y="0px" x="0px" xmlns:cc="http://creativecommons.org/ns#" xmlns:dc="http://purl.org/dc/elements/1.1/">
<title>The PC900 is dead, long live the H11L1!</title>
<metadata>
<rdf:RDF>
<cc:Work rdf:about="">
<dc:format>image/svg+xml</dc:format>
<dc:type rdf:resource="http://purl.org/dc/dcmitype/StillImage"/>
<dc:title>The PC900 is dead, long live the H11L1!</dc:title>
<cc:license rdf:resource="http://creativecommons.org/licenses/by/3.0/"/>
<dc:creator><cc:Agent><dc:title>Alyssa Erin</dc:title></cc:Agent></dc:creator>
<dc:contributor><cc:Agent><dc:title>Clemens Ladisch</dc:title></cc:Agent></dc:contributor>
<dc:date>2016-11-25</dc:date>
<dc:source/>
</cc:Work>
<cc:License rdf:about="http://creativecommons.org/licenses/by/3.0/">
<cc:permits rdf:resource="http://creativecommons.org/ns#Reproduction"/>
<cc:permits rdf:resource="http://creativecommons.org/ns#Distribution"/>
<cc:requires rdf:resource="http://creativecommons.org/ns#Notice"/>
<cc:requires rdf:resource="http://creativecommons.org/ns#Attribution"/>
<cc:permits rdf:resource="http://creativecommons.org/ns#DerivativeWorks"/>
</cc:License>
</rdf:RDF>
</metadata>
<g>
<g transform="translate(-49.799 -56.15)">
<path d="m338.95 182.2h-0.15c-1.5667-0.63333-3.0833-0.95-4.55-0.95-1.9667-0.0667-3.2833 0-3.95 0.2-0.7 0.2-1.2667 0.31667-1.7 0.35-0.86667-0.43333-1.8167-0.85-2.85-1.25-1.0667-0.43333-1.95-0.76667-2.65-1-0.66667-0.26667-1.2667-0.45-1.8-0.55l-1.8-0.3c-0.56667-0.0667-1.5167-0.05-2.85 0.05 0.5 0.2-1.35-0.41667-5.55-1.85-0.0333 0-0.1-0.0333-0.2-0.1-2.1333-0.53333-4.3167-0.61667-6.55-0.25-0.33333-0.23333-0.88333-0.55-1.65-0.95l-0.1-0.1c-0.26667-0.0667-0.5-0.18333-0.7-0.35-1.5-0.73333-2.9333-1-4.3-0.8-1.3333 0.13333-2.5667 0.15-3.7 0.05-0.0333-0.0667-0.0833-0.1-0.15-0.1-0.13333-0.0333-0.28333-0.0833-0.45-0.15-0.33333-0.43333-0.75-0.78333-1.25-1.05-0.36667-0.2-0.75-0.38333-1.15-0.55-0.66667-0.23333-1.3167-0.41667-1.95-0.55-0.63333-0.2-1.2667-0.35-1.9-0.45-1-0.16667-2-0.23333-3-0.2-0.53333 0-1.05-0.05-1.55-0.15-0.0667-0.1-0.11667-0.16667-0.15-0.2-0.0333-0.16667-0.0667-0.3-0.1-0.4v-0.1l-3.1-0.65c-3.2667-0.73333-6.5-1.4667-9.7-2.2l-1.25 1.25-28.45 26.85c-1.4667 1.3-2.9333 2.6167-4.4 3.95-2.7333 2.4333-4.6167 5.9167-5.65 10.45-0.26667 2.8 0 5.55 0.8 8.25s1.6333 4.55 2.5 5.55c14.967 4.3 26.15 7.5 33.55 9.6 4.2333 1.2 10.9 2.9833 20 5.35l167.6 44.75c4.7333 1.0333 9.1833 1.9333 13.35 2.7 1.4333 0.23333 2.8167 0.43333 4.15 0.6 0.5 0.0333 0.96667 0.0667 1.4 0.1 1.7333-0.0333 3.3167-0.46667 4.75-1.3 0.2-0.1 0.38333-0.18333 0.55-0.25 0.23333-0.16667 0.46667-0.35 0.7-0.55l0.15-0.15c-0.0333 0.1-0.0833 0.2-0.15 0.3 1.0667-0.63333 2.0667-1.4167 3-2.35 0.43333-0.56667 0.88333-1.1333 1.35-1.7 1.6667-3.6 3.25-7.2167 4.75-10.85l10.9-25.1c0.53333-1.2333 1.7833-4.1833 3.75-8.85-0.13333-1.7667-0.25-3.5333-0.35-5.3l-0.7-7.55c-0.43333-4.4333-1.1667-7.4667-2.2-9.1-0.83333-1.3-1.8833-2.25-3.15-2.85-0.96667-0.4-1.95-0.66667-2.95-0.8-3.2333-0.56667-6.45-1.15-9.65-1.75-3.5667-0.63333-7.1833-1.05-10.85-1.25-0.7 0-1.3833-0.0167-2.05-0.05-0.36667 0.16667-0.7 0.4-1 0.7-0.5 0.36667-0.96667 0.81667-1.4 1.35-1.2333-0.43333-2.5-0.78333-3.8-1.05-1.6-0.33333-3.1833-0.5-4.75-0.5-0.0333-0.0333-0.0833-0.0333-0.15 0-1.5 0-3 0.13333-4.5 0.4-0.1 0.1-0.18333 0.2-0.25 0.3-0.86667-0.56667-1.7667-1.0667-2.7-1.5l-0.05-0.05h-0.05c-0.96667-0.43333-1.9667-0.76667-3-1-2.3-0.6-4.7333-0.83333-7.3-0.7-0.23333 0.0667-0.51667 0.2-0.85 0.4-0.0333 0-0.1 0.0333-0.2 0.1-0.1 0.1-0.2 0.18333-0.3 0.25l-0.3-0.2c-0.1-0.0333-0.16667-0.0667-0.2-0.1-0.33333-0.23333-0.51667-0.35-0.55-0.35-0.16667-0.0667-0.68333-0.38333-1.55-0.95-0.0667-0.0333-0.11667-0.0667-0.15-0.1h-0.05c-0.9-0.5-2.0667-0.95-3.5-1.35-0.4-0.13333-0.78333-0.25-1.15-0.35-1-0.26667-1.7667-0.4-2.3-0.4-0.83333-0.1-1.6667-0.21667-2.5-0.35-0.83333-0.0333-1.6667 0-2.5 0.1-0.33333 0.0667-0.68333 0.13333-1.05 0.2-0.16667 0-0.33333 0.0333-0.5 0.1h-0.15c-0.0667 0.0333-0.13333 0.05-0.2 0.05l0.15-0.1c-0.13333 0-0.23333 0.0167-0.3 0.05 0.0333-0.0333 0.15-0.0667 0.35-0.1 0.3-0.0333 0.73333-0.0833 1.3-0.15l-1.25 0.1c-0.7-0.83333-2.0833-1.55-4.15-2.15-3.6-1.1333-6.4667-1.8-8.6-2h-0.05c-0.0667-0.0667-0.15-0.0833-0.25-0.05-0.53333 0-1.0667 0.0167-1.6 0.05-0.1 0-0.18333 0.0333-0.25 0.1-0.13333 0.0667-0.23333 0.13333-0.3 0.2-0.16667-0.16667-0.35-0.3-0.55-0.4-0.0333-0.0333-0.1-0.05-0.2-0.05l-0.05-0.05c-0.23333-0.23333-0.61667-0.51667-1.15-0.85-0.56667-0.33333-1.5833-0.68333-3.05-1.05-1.5-0.43333-2.75-0.68333-3.75-0.75-0.9-0.0667-1.65-0.0833-2.25-0.05-1 0.1-1.5833 0.18333-1.75 0.25-0.2 0.1-0.4 0.15-0.6 0.15-0.23333 0-0.38333-0.0167-0.45-0.05l-0.05-0.05c-0.86667-0.56667-1.7333-1.05-2.6-1.45l0.25 0.05c-0.3-0.16667-0.56667-0.26667-0.8-0.3-0.93333-0.26667-1.8833-0.5-2.85-0.7h-0.1c-0.86667-0.16667-1.7333-0.28333-2.6-0.35-1.0667-0.13333-2.1-0.2-3.1-0.2-0.3 0-0.61667-0.0167-0.95-0.05-0.13333 0.0333-0.23333 0.0333-0.3 0-0.1-0.0333-0.18333-0.0667-0.25-0.1-0.13333-0.0667-0.23333-0.2-0.3-0.4-0.13333-0.13333-0.71667-0.38333-1.75-0.75-1.0667-0.33333-2.3833-0.66667-3.95-1-1.5333-0.33333-2.7667-0.53333-3.7-0.6-0.96667-0.1-1.9167-0.16667-2.85-0.2-0.16667 0.0333-0.3 0.05-0.4 0.05s-0.21667 0.0333-0.35 0.1h-0.05l-0.1-0.1c-0.13333-0.0667-0.26667-0.1-0.4-0.1l-0.35-0.35c-0.1-0.1-0.18333-0.16667-0.25-0.2-0.1-0.13333-0.21667-0.26667-0.35-0.4h-0.1c-1.3333-0.73333-2.7833-1.1833-4.35-1.35-0.73333-0.1-1.6333-0.2-2.7-0.3-1.1-0.16667-2-0.15-2.7 0.05-0.4 0.13333-0.71667 0.2-0.95 0.2-0.2 0.0333-0.33333 0.05-0.4 0.05-0.33333-0.33333-0.66667-0.63333-1-0.9h-0.1l-0.05-0.1c-1.0333-0.8-1.9667-1.3333-2.8-1.6-1.2333-0.4-2.8333-0.78333-4.8-1.15-0.96667-0.2-1.8667-0.28333-2.7-0.25h-0.15c-0.76667 0.0333-1.4333 0.15-2 0.35-0.13333 0-0.25 0.0167-0.35 0.05-0.3-0.13333-0.61667-0.3-0.95-0.5-0.13333-0.0333-0.21667-0.0667-0.25-0.1-0.63333-0.33333-1.2167-0.61667-1.75-0.85"/>
<path fill="#131212" d="m279.2 213.1q0.092-0.092 0.2-0.2 0.25-0.25 0.55-0.45 0.2-0.3 0.45-0.45h-0.05q-0.11602 0.0869-0.25 0.2l0.2-0.2q-0.05-0.05-0.1-0.05-0.15 0.15-0.3 0.4-0.36582 0.32012-0.7 0.75m30.35-16.3q-0.1 0.2-0.35 0.4-0.05 0.1-0.15 0.2-2.9 3-5.1 5.05-1.85 1.65-3.7 3.5-1 0.95-2 2.05l-0.85-0.75q-2.15 2.25-3.7 3.85-0.75 0.65-1.15 1.2 1.2 0.35 2.45 0.7 0.05-0.2 0.2-0.35 1.35-1.35 2.65-2.7 1.55-1.7 3.05-3.3 3.95-4.25 9.2-9.4-0.2-0.3-0.55-0.45m-13.65-2.75q-0.15 0.1-0.3 0.35l-0.3-0.3q-0.45 0.45-0.8 0.95-1.15 1.55-2.4 2.55-1.25 1.05-2.1 2.25-1.05 1.2-1.4 1.5l-0.45 0.35q-0.8 0.7-1.5 1.45-2.05 1.95-3.95 4.1-0.8 0.8-1.55 1.75 0.65 0.15 1.45 0.4-0.05-0.15 0-0.15 1.1-1.35 2-2.35 1.65-1.95 2.65-3.1 1.8-1.8 3.5-3.7 1.85-1.8 3.7-3.7 0.4-0.4 0.85-0.8 0.6-0.6 1.15-1.15-0.2-0.25-0.55-0.4m-13.15-3.5q-0.15 0.2-0.3 0.35-0.4 0.4-0.7 0.75-2.25 2.3-4.7 4.6-1.8 1.65-3.5 3.55-2.1 1.9-4 4l-0.8-0.75q-1.05 1-2.05 2.1 1.15 0.3 2.4 0.6 1-1.05 2-2.1 1.55-1.65 3.05-3.2 1.7-1.9 3.45-3.7 2.2-2.3 4.55-4.6 0.6-0.6 1.15-1.15-0.2-0.25-0.55-0.45m45.95 34.15q3.15 0.3 3.2 0.2-0.65-0.15-1.35-0.35-0.35 0.05-0.55 0.05l-1.3 0.1m4.1-24.05q-0.3 0.3-0.45 0.55l-0.1-0.15q-2.15 2.3-4.3 4.65-2.75 3.15-5.75 5.95-0.3 0.25-0.55 0.55-2.55 2.35-4.75 5.25-0.7 0.8-1.35 1.3 0.4 0.2 0.85 0.3 0.8-1.05 2.05-2.5 1.25-1.4 2.65-2.7 1.6-1.6 3.25-3.3 0.3-0.3 0.5-0.55 2.85-2.75 5-4.95 2.3-2.25 4.3-4.2-1.1 0.05-1.35-0.2m15.4 2.65h0.05q-0.0484-0.0484-0.05-0.1v0.1m26.35 6.5q-0.75-0.2-1.6-0.4-0.25 0.65-1 1.4-1.5 1.6-2.85 3.5-2.8 3.8-5.6 7.5-1.9 2.75-3.8 5.5-0.75 1.05-1.35 2.1-0.15 0.2-0.35 0.55 0.4 0.05 0.8 0.15 0.65-1.2 1.55-2.3 1.55-1.75 3-3.65 2.95-3.9 5.8-7.85 2.6-3.55 5.4-6.5m28.75 6.9q-0.05 0-0.05 0.15-9.75 15.5-13.45 21.1 1.3 0.3 2.7 0.6 3.4-5.8 11.05-17.65 0.95-1.5 1.8-2.95-0.25-0.35-0.7-0.55-0.5-0.25-0.9-0.5-0.25-0.15-0.45-0.2m-12.6-2.75q-0.45-0.05-0.65-0.25-1.3 1.65-2.55 3.9l-11 17.1q0.8 0.15 1.65 0.4l11.3-17.65q0.65-1 1.35-1.95 0.45-0.6 0.95-1.15-0.2-0.05-0.4-0.2-0.4-0.1-0.65-0.2m28.9 31.4q1.1 0.4 2.25 0.7 0.7-1.25 1.6-2.8l7.1-12.1q2.05-3.4 4.35-7.3l-1.3-0.25h-0.15q-0.2 0.35-0.3 0.65l-0.85-0.55-12.7 21.65m1.9 1.3q-0.4 0.15-0.7 0.2 0.3 0 0.55 0.1 0.05-0.1 0.15-0.3m30.35-18.2-1.85-1-12.3 24.05q1 0.25 2 0.6h0.1l12.05-23.65m-101.3-25.75q0.45 0.45 0.85 0.85 0.35 0.3 0.3 0.7-0.25 0.5-0.75 0.2-0.35-0.3-0.8-0.5-0.4-0.3-0.85-0.4-1.8 1.85-3.45 3.7-1.7 2.05-3.65 3.9-1.85 1.85-3.55 3.9-0.3 0.55-0.7 0.6-0.9 0.95-1.65 1.85-0.8 0.8-3.15 3.9l-0.1 0.05q-0.55 0.75-1.25 1.7 0.55 0.15 1.1 0.3 0.4-0.6 1-1.35 2.2-2.7 4.25-5 0.65-0.8 1.35-1.45 0.3-0.4 0.6-0.75 0.65-0.7 1.3-1.45 1.35-1.45 2.85-2.95 1.4-1.45 2.9-2.95 0.8-0.85 1.7-1.7 0.6-0.6 1.15-1.15l1.15 0.95q0.4-0.5 0.9-1h0.05q-0.05-0.05-0.05-0.1 0-0.3-0.05-0.55-0.4-0.35-0.7-0.7l-0.95-0.95q-0.15 0-0.3-0.05 0.25 0.15 0.5 0.4z"/>
<path fill="#2a2828" d="m303.1 194.75q-0.3-0.15-0.6-0.1-2.85 3.1-6.3 6.25-1.1 0.95-2.1 1.95-0.9 0.85-1.75 1.75-1.95 1.9-3.65 3.9-1 1.05-1.95 2.1 2.15 0.6 4.15 1.25 0.8 0.15 1.65 0.45 0.4-0.55 1.15-1.2 1.55-1.6 3.7-3.85 0.55-0.6 1.2-1.25 0.4-0.45 0.8-0.9 3.45-3.75 7.15-7.3 0.8-0.9 1.65-1.55-2-0.6-3.85-1.25-0.15-0.1-0.35-0.15-0.45-0.05-0.9-0.1m-11.1-2.1q-0.9-0.25-1.65-0.6-0.75-0.2-1.35-0.5-0.65 0.75-1.35 1.5-2.4 2.6-5.1 5.1-0.45 0.45-0.95 0.85-1.5 1.35-2.9 2.75-1.95 1.95-3.7 3.9-0.6 0.65-1.1 1.3 2.9 0.85 5.95 1.65 0.95-1.05 2-2.15 1.55-1.65 3.05-3.25 0.30625-0.2625 0.5-0.5-0.29004 0.34902-0.7 0.85l1.3-1.35q0.15-0.3 0.35-0.5 3.55-4.05 5.5-6.05 2.1-2.1 2.35-2.3-1.15-0.35-2.2-0.7m-10.95-2.8q-0.8-0.25-1.65-0.4-1.85-0.7-3.55-1.35-1.2 1.3-2.45 2.65-1.9 1.95-4 3.95-2.3 2.15-4.5 4.35-1.6 1.55-3.1 3.2-0.6 0.65-1.25 1.45 3 0.65 6.15 1.45 1-1.1 2.05-2.1 1.5-1.7 3-3.25 3.9-4.2 8-8.3 0.85-0.8 1.65-1.5-0.2-0.1-0.35-0.15m-9.75-19.4q-1.05-0.3-2-0.55l-29.3 29.05q-0.35 0.25-0.65 0.6 0.4 0.1 0.7 0.2l4.95 1.15q2.45 0.6 4.6 1.15 0.1-0.1 0.3-0.2l-0.05-0.05q0.3-0.45 0.05 0.05 0.9-0.95 1.25-1.25 0.1-0.1 0.25-0.2l28.05-28.05-8.15-1.9m59.55 29.65q-0.6-0.1-1.25-0.2-2.3-0.5-4.45-0.9-2.65 2.9-6.1 6.6-3.55 3.7-9.25 10.45-0.4 0.45-0.7 0.95 2.55 0.7 5.2 1.5 1.7-2.45 1.65-2.45 1.45-1.45 2.8-2.85 0.2-0.3 0.5-0.5 1.25-1.35 2.55-2.8 0.9-1 1.85-2.05 2.35-2.75 4.8-5.45 1.05-1.15 2.15-1.95 0.2-0.2 0.45-0.3-0.1 0-0.2-0.05m16.95 3.5q-0.95-0.2-1.9-0.4-0.9-0.15-1.65-0.35-1.15-0.2-2.25-0.45-2.75 3-5.9 5.95-1.1 1-2.4 2.55-1.4 1.5-3.3 3.7-1.95 2.25-4 4.65-0.95 1.2-1.55 2.05 2.65 0.75 5.5 1.45 0-0.05 0.05-0.05 1.7-2.45 3.45-4.3 0.7-0.7 1.5-1.65 0.2-0.2 0.5-0.45 0.8-0.9 1.85-2 1.1-1.35 2.35-2.6 1.85-1.95 3.7-3.8 1.85-1.95 3.55-3.75 0.3-0.25 0.5-0.55m18.15 4.25-1.4 1.55q-1.6 2.65-5.2 7.3-3.6 4.75-6.25 8.7-1 1.45-1.95 2.75 2.75 0.7 5.6 1.45 1.35-2 2.65-4 2.5-3.6 5.05-7.15 2.85-3.8 5.65-7.5 0.8-1 1.55-1.8-0.05-0.1-0.1-0.1-0.75-0.15-1.3-0.25-2.15-0.5-4.3-0.95m36.35 8.6 0.1-0.05q-1.6-0.35-3-0.7-0.75-0.25-1.45-0.4t-1.3-0.25q-0.35 0.95-0.75 1.9l-12.05 19.55q2.55 0.6 5.15 1.25l13.3-21.3m-13.3-3.2q-1.2-0.3-2.4-0.65-0.8-0.15-1.55-0.3-1.1-0.3-2.2-0.55-2.05 3.3-4.3 6.55l-8.35 12.95q-0.45 0.8-0.9 1.65 1.6 0.3 3.25 0.75 1.4 0.4 2.85 0.7l10.55-16.65q1-1.6 1.85-2.95 0.6-0.85 1.2-1.5m50.15 42.45q-4-0.95-9.9-2.6l-5.8-1.55q-0.1-0.1-0.3-0.1-0.65-0.2-1.2-0.35-0.15 0-0.2 0l-1.3-0.35-0.1 0.1q-0.3-0.15-0.55-0.25-0.2-0.05-0.35-0.15l-0.85-0.2q-0.3-0.05-0.55-0.1-0.35-0.05-0.7-0.15-8.95-1.8-16.45-4.2-3.95-1.25-5.6-1.75-0.05 0-0.1 0l-87.95-23.3q0.25-0.2-3.75-1.05-4-0.9-6.9-1.8l-11.95-3.1q-2.1-0.5-4.25-1.2-2.8-0.8-6.85-2.05-0.6-0.15-1.1-0.25l-0.05-0.05q-12.4-3.55-24.4-6.75-5.95-1.5-10.95-2.65-2.7 2.25-4.1 7 26.15 5.7 52.25 12.7l187 50.05q3.85-1 5.6-4.85 1.1-2.45 2.15-4.85l-0.2 0.35q0.15-0.35 0.3-0.6 6.2-13.2 10.7-23 3.9-8.75 8.3-17.35-0.5-4.8-4.25-6.4-0.25 2.15-1.55 4.8-3.4 6.7-6.65 13.7-0.2 0.5-0.45 1.1-3.35 7.5-6.9 15.05-1.85 4.1-6.55 13.35-0.05 0.2-0.15 0.35-0.35 0.6-0.7 1.25-0.8-0.3-1.75-0.6-1.35-0.45-2.8-0.75-3.3-0.35-6.7-1.75-0.7-0.35-1.55-0.6-2.65-0.7-5.3-1.3-2.55-0.35-6.6-1.6-4.1-1.25-8-2.2m-91.5-22.95q-0.05-0.15 0-0.2 0.05 0 0.1 0.05-0.1 0.05-0.1 0.15m87.85 6.5q-1.65 3.65-3.55 7.15-0.75 1.45-1.45 2.85 0.95 0.25 1.8 0.55 1.75 0.6 3.55 1.25 0.1 0 0.3 0 0.1-0.35 0.2-0.8l12.4-23.25-6.5-0.9-6.75 13.15m-22.45 4.25q3.3 0.95 6.55 1.85l12.7-21.65 0.05-0.35q-0.55-0.1-1-0.25-0.7-0.2-1.45-0.25l-3.45-0.75-13.4 21.4m71.15-9.85q0.25-0.6 0.55-1.15 3.55-7.4 6.8-14.8 0.85-1.75 1.7-3.3-0.45-0.15-0.85-0.1-1.9-0.35-5.4-1.2-6.55-1.65-15.9-3.5-2.05 6.65-5.4 12.9-3.9 7.55-7.5 15.05-3.55 7.55-7.25 15.1-0.55 1-1.2 2.05 7.65 1.5 15.3 3.2 3.35 0.8 5.65 2.7 0.25 0.05 0.45 0.05 3.45-6.65 6.65-13.65 3.2-6.65 6.4-13.35m-15.45-15.05v-0.1q0.15 0 0.35-0.05 4.5 0.2 8.95 1.1-1.35 3.45-2.95 6.8-0.65 1.35-1.35 2.75-1.8-0.3-3.55-0.55-2.7-0.55-5.4-0.55 0.25-0.45 0.4-0.9 0-0.05 0-0.15l0.05-0.05v-0.05l0.1-0.05-0.05-0.05q1.45-3.4 3.45-8.15m10.6 1.2 5.45 0.85q1.95 0.25 3.1 0.4l-1.8 4.45q-0.95 2.45-2 4.55-1.1-0.3-2.3-0.3-2.8-0.05-5.6-0.35-0.6-0.05-1.2-0.1 1.25-3.05 2.75-5.85 0.85-1.9 1.6-3.65m-18.3 14.95v-0.05q0.2-0.05 0.35-0.05v-0.05q4.45 0.2 9.05 1.05-1.35 3.45-3.05 6.8-0.65 1.4-1.3 2.75-1.85-0.25-3.55-0.5-2.7-0.55-5.4-0.55 0.2-0.45 0.4-0.95 0-0.05 0-0.1 0.05-0.05 0.1-0.05v-0.1h0.05v-0.05q1.4-3.45 3.35-8.15m7.5 10.75q-0.6-0.1-1.2-0.1 1.25-3 2.7-5.85 0.9-1.85 1.65-3.7l5.45 0.95q1.9 0.25 3.05 0.35l-1.8 4.45q-0.95 2.5-2 4.55-1.05-0.3-2.25-0.3-2.8 0-5.6-0.35m6.85-0.3q0.1-0.1 0.15-0.25 1.5-3.05 2.05-4.35 0.5-1.25 0.6-1.65-2.4-0.25-5.8-0.65-0.75 1.3-3.1 6.15 0.8 0.05 1.55 0.15 1.05 0.15 2.1 0.4 1 0.1 2.15 0.15 0.15 0 0.3 0.05m-13.4-9q-0.1 0.35-0.35 0.9-1.25 2.5-2.3 5.25-0.1 0.25-0.15 0.5 0.55 0.1 1.2 0.1 1.25 0 2.5 0.3 1.2 0.25 2.4 0.35h0.1q0.55-1.1 1.05-2.15 0.95-2 1.75-3.95-0.25-0.1-0.4-0.1-2-0.4-3.95-0.8-0.95-0.25-1.85-0.4m21.2-7.4q1.5-3.05 2.1-4.35 0.5-1.2 0.6-1.65-2.5-0.2-5.85-0.65-0.75 1.3-3.1 6.15 0.8 0.05 1.55 0.2 1.05 0.15 2.05 0.35 1.1 0.1 2.2 0.15 0.15 0 0.3 0.1 0.05-0.15 0.15-0.3m-7.4-7.45q-0.2 0-0.35-0.1-1.95-0.4-4-0.8-0.8-0.2-1.7-0.3-0.2 0.25-0.4 0.8-1.25 2.55-2.35 5.3-0.15 0.2-0.15 0.5 0.55 0.05 1.25 0.1 1.25-0.05 2.5 0.25 1.15 0.25 2.4 0.35h0.05q0.6-1.05 1.1-2.15 0.9-1.9 1.65-3.95z"/>
<path fill="#ecedea" d="m302.35 181q-3.2 3.35-3.5 3.9-0.7 0.65-1.75 1.95-1.95 2.15-3.8 4.25 1.5 0.35 3.4 0.95l1 1q0.35 0.3 0.75 0.7 0.1 0.3 0.1 0.55v0.1h-0.05q-0.05 0.05-0.2 0.2-2.65 2.8-5.7 5.7-2.2 2.1-5.85 5.65-0.9 1-3.45 3.6 1 0.3 2.15 0.7 2.4-2.5 6.1-6.25 0.9-0.95 1.8-1.95 0.3-0.25 0.6-0.45 0.75-0.9 1.5-1.6 2.25-2.4 4.05-4.35 0.1-0.05 0.2-0.1 1.5-1.65 2.5-2.1 0.75-0.3 1.25-0.2 0.35 0.05 0.7 0.15 1.35-1.65 2.45-3.1 0.25-0.4 0.6-0.75l0.05-0.1q1.2-1.25 2.65-2.9 1.55-1.75 3.95-4.4 0.75-0.85 1.65-2.2v-0.05q-0.8-1-5.55-1.75-4.7-0.75-5.4 0.6v0.1q-0.05 0.05-0.15 0.1-0.05 0.1-0.1 0.15l-1.95 1.9m-19.4 7q0.15 0.1 0.25 0.2 0.6 0.6 1.15 1.1 0.4 0.5 0.95 1.05 0.1 0.25 0.1 0.5 0 0.05 0 0.1h-0.05q-0.5 0.5-0.95 1.05-2.3 2.45-4.9 4.85-4 3.6-7.55 7.6-0.75 0.8-1.55 1.65 1.05 0.25 2.15 0.5 2.15-2.2 5.35-5.55 0.85-0.85 1.8-1.75 0.5-0.5 1.1-1.1 2.4-2.55 4.9-4.95 0.45-0.45 0.95-0.95l0.05-0.05q0.7-0.8 1.5-1.45 0.45-0.5 0.9-0.9 0.5 0.15 2.4 0.7 2.15-2.55 4.3-4.85 2.55-2.75 5.15-5.25 1.2-1.15 2.3-2.3h0.1q0-0.1 0-0.25 0.05 0 0.05-0.05t0-0.15v-0.05q-0.05-0.35-0.25-0.65-0.25-0.3-4.1-1.15-3.9-0.9-4.4-0.75-0.4 0.25-2.35 2.3l-1.55 1.6q-0.15 0.1-1.05 1.05-1.05 1.15-2.25 2.7-0.05 0-0.15 0.1-1.4 1.65-4.5 5.05 0.05 0 0.15 0.05m0.45-14.95q-0.2 0.1-0.4 0.1-0.6 0.2-1.25 0.5l-26.85 26.5q-0.85 0.85-1.7 1.8 3 0.6 6 1.35 0.9-0.9 1.8-1.8 1.5-1.65 3.05-3.3 3.95-4.15 8.3-8.4 1.55-1.6 2.65-2.65 0.25-0.2 0.5-0.45 0.2-0.25 0.65-0.25 0.25 0 0.95 0 2.1 0.6 4.2 1.15 1.8-1.85 3.1-3.25 1.1-1.3 2.15-2.25 1.3-1.55 2.4-2.7 0-0.05 0.05-0.05 0.8-1 1.5-1.75 0.65-0.8 1.15-1.65 0.05-0.25 0.05-0.45-0.05-0.65-0.5-1.2-3.4-0.5-7.65-1.2l-0.15-0.05m138.1 29.2q-0.2-0.35-0.85-0.7-0.65-0.45-2.75-0.95-2.05-0.5-4.5-1-2.45-0.35-2.75-0.3-0.3 0.1-1.2 0.55-0.05 0.1-0.05 0.2-0.1 0.05-1.6 2.45t-2.85 4.7q-1.4 2.35-2.8 4.35-1.05 1.6-2.2 3.25 1.25 0.15 2.75 0.35 0.7 0.15 1.4 0.25 0.4 0.25 0.8 0.45 1.1 0.65 2.15 1.4v0.05q-1.6 2.5-3.35 5.55-6.75 11.55-9.55 16.1 2.1 0.5 4.3 0.95 0.05 0 0.15 0.05 0.65-1.1 1.4-2.15 4.15-6.05 8.05-12.25 0.3-0.5 0.55-0.9 3.55-5.45 7.3-10.9 0.05-0.05 0.1-0.1 1.5-2.25 3-4.35 0.05-0.15 0.1-0.2 0-0.1 0.1-0.25 0.05-0.1 1.65-2.4 1.45-2.4 1.2-3.15-0.2-0.7-0.55-1.05m18.05 4.9q-0.45-1.1-1.1-1.25-0.7-0.25-5.1-1.2t-6.45-1.05q-2.15-0.15-3.3 1.05l-0.4 0.5q-0.45 0.65-1.35 2-0.35 0.65-0.85 1.4l-0.1 0.05-0.05 0.1q-0.35 0.6-0.8 1.25-1.45 2.2-2.95 4.35 0 0.05 0 0.15-3.55 5.4-7.3 11-0.3 0.4-0.5 0.85-4.5 7.05-9.05 14 5.75 1.25 11.35 2.8l14.1-22.4 4.1 0.75q0.5 0 0.9 0.05 1.25-2 2.55-3.95 3.05-4.55 5.7-9.25 0.25-0.65 0.6-1.2m11.85 1.3q-1.95-0.3-4.7-0.7t-4.15-0.3q-1.45 0.1-1.8 0.75-0.35 0.5-0.65 0.85l-3 5.5q-2.45 3.7-4.9 7.35 0.25 0 0.55 0.1 0.15 0.1 0.35 0.2 0.45 0.25 0.9 0.45 0.35 0.25 0.7 0.4 0.3 0.2 0.55 0.35 0.35 0.2 0.75 0.45 0 0.05 0 0.15-0.05 0.25-0.1 0.45l-13.35 22.7q3.15 0.6 6.25 1.55 0.85-1.45 2.25-3.95 2.6-4.7 4.25-8l6.05-11.6q0.15-0.2 0.2-0.5 0.2 0 1.35 0.25 0.25 0.05 0.55 0.1l3 0.85q1.9-3.2 3.05-5.5 1.1-2.25 2.55-5.05 1.35-2.8 1.85-4.05 0.6-1.3 0.65-1.4 0-0.05 0-0.1-1.3-0.95-3.15-1.3m15.45 4.05q0.1-0.2 0.15-0.25 0-0.1-0.45-0.7-0.4-0.6-3.4-1-2.95-0.45-4.5-0.75-1.45-0.25-2.2 0.15-0.8 0.35-0.85 0.5-0.15 0.05-0.15 0.2-1.4 2.45-3.45 7-2.05 4.4-3.45 7.05-0.6 1.05-1 1.55l5.45 1.55-11.4 24.7q-0.05 0.05-0.05 0.15 0.2 0.1 0.5 0.15 2.55 0.75 5.3 1.35 1.9-5.7 4.9-11.55 3.8-7.3 7.4-14.95 3.5-7.6 7.2-15.15m-63.2-14.75q-1.95-0.5-3.9-0.8t-2.85 0.1q-0.85 0.3-1.95 2.65-0.3 0.4-0.5 1-0.45 0.7-0.95 1.55-0.05 0.05-0.05 0.15-0.1 0.1-0.15 0.2-2.25 3.9-5.75 8.75 0.75 0.1 1.6 0.25 0.1 0 0.35 0.05 0.4 0.2 0.85 0.45h0.1q0.65 0.4 1.3 0.9 0.4 0.4 0.75 0.8 0.25 0.25 0.45 0.5-0.85 1.45-1.8 3l-12.8 17.85q2.25 0.5 4.5 1.05 2.75-5.3 11.25-19.15 0.8-1.35 1.75-2.85 0.65 0.1 1.75 0.25 0.4 0.05 0.8 0.1 1.3-1.9 2.55-3.85 3.9-5.5 7.35-11.05 0-0.05 0-0.1 0-0.1 0.05-0.1-0.25-0.55-1.45-0.85-1.3-0.3-3.25-0.85m-22.1-2.2q-0.05 0-0.1 0.1-1.3 1.75-1.8 2.55-0.55 0.9-1 1.5-1.05 1.45-1.35 1.95-1.65 2.1-4.55 5.8 0.5 0.1 0.95 0.2 0.65 0.65 1.35 1.35 0.25 0.2 0.55 0.5-0.15 0.2-0.2 0.5-2.25 3.4-5 6.8-2.9 3.75-5.65 7.6-2.25 3-4.5 6.1 3.65 1 7.2 1.85 0.15-0.2 0.3-0.4 1.1-1.9 2.2-3.8l6.55-9.7q1.05-1.4 2.1-2.85 2-2.6 3.8-5.3 0.15-0.05 0.25 0 1.65 0.4 3.35 0.7 1.05-1.6 2.15-3.05 2.5-3.65 4.1-6.15 0.1-0.05 0.15-0.05 0.5-0.9 1-1.65 0.9-1.35 1.25-2.2t0.25-1.1q-0.1-0.15-0.2-0.4-1-0.7-2.25-1.1-0.15-0.05-0.25-0.05-3-0.8-6.2-1.15-3.15-0.35-4.45 1.45m-12.65-4.45q-0.5 0.1-0.8 0.45-0.1 0-2.3 3-1.55 2.2-1.9 2.95-4.9 6.85-8.5 11.35-1.25 1.5-2.5 3.05-5.45 6.7-10.5 13.8-0.15 0.1-0.2 0.2 3.75 0.95 7.6 1.85 0.75-1.05 2-2.75 4.5-6.25 6.7-9.4 2.4-3.45 4.85-6.8l-0.3 0.45q1.3-1.85 1.25-1.85 0.2-0.15 0.25-0.3 0.6-0.65 1.1-1.25 2.95 0.7 5.95 1.35 0.15-0.2 0.3-0.4 3.45-4.25 6.6-8.75 0.05 0 0-0.05 0.5-0.55 0.8-1.05 0.45-0.7 0.85-1.45 0.25-0.4 0.45-0.95l-1.1 2q1.85-3.6 0.05-4.05-1.9-0.5-3.95-0.95-2-0.5-3.55-0.55-1.65-0.1-3.15 0.1m-15.4 1.9q-0.5 0.6-2.1 2.85-1.55 2.15-4.2 5.6 0.6 0.15 1.6 0.5 0.5 0.15 1.25 0.35 0.15 0.05 0.3 0.05l0.95 0.95q0.3 0.35 0.7 0.7 0.05 0.25 0.05 0.55 0 0.05 0.05 0.1h-0.05q-0.5 0.5-0.9 1-2.35 2.45-5.05 5.35-3.25 3.25-5.45 5.75-0.6 0.55-1.3 1.4-1.85 2.05-4.75 5.75 2.9 0.7 5.75 1.5 0.2-0.2 0.3-0.35 0.1-0.25 0.3-0.4 2.35-2.6 4.5-5.5 3.05-4.15 6.25-8.15 1.25-1.6 2.45-3.15 4.25-5.4 8.5-10.85 2.35-3.05 4.4-6.1l0.3-0.4q0.05-0.15 0.15-0.25-0.05-0.45-0.35-0.6-1.55-0.8-3.65-1.2t-3.4-0.5q-1.4-0.1-2.3 0.05-0.85 0.2-1.3 0.25-0.45 1-1.55 2.55-1 1.55-1.45 2.2m-12.15-6.6q-0.15 0.4-2.25 2.7-0.05 0.15-0.1 0.25-4.6 5.5-5.75 7.85-0.25 0.15-1.1 1.25 0.4 0.15 0.75 0.3 1.45 0.5 3.1 1.2-0.7 0.8-1.6 1.75-7.15 7.9-9.15 10.15-1.95 2.25-4.35 4.7-1.55 1.6-2.75 2.95 2.45 0.7 4.9 1.3 4.45-5.5 6.65-7.7 2.45-2.6 4.25-4.65 1.75-2.05 4.8-4.65 2.85-2.7 3.5-3.2 0.15-0.3 0.3-0.45 0.85 0.2 3.15 0.85 2.7-3.4 5.3-6.7 0.05 0 0.15-0.1 1.25-1.5 2.05-2.7 2.55-3.9 1.1-4.55-2.85-1.25-6.8-2.15-1.95-0.5-3.2-0.5-1.25 0.05-1.75 0.55-1.1 1.1-1.2 1.55m-14.1-4.05q-1-0.85-2.2-1.3-1.25-0.4-1.65-0.5-0.5-0.1-1.5-0.25-1-0.2-2.5-0.35-1.4-0.25-2 0-0.2 0.05-0.3 0.15-0.45 0.3-0.95 0.8-0.2 0.15-0.35 0.35h-0.05q-0.95 1.15-2.25 2.75-1.6 1.9-5.2 6.4h-0.05q-0.3 0.35-0.65 0.7-1 1.25-2.15 2.6 0.55 0.1 1.1 0.25 1.9 0.35 3 0.65 1 0.2 1.9 1.3 0.95 0.9 0.85 1.15-0.1 0.1-0.1 0.15h-0.1q-2.75 2.9-5.8 5.9-2.3 2.05-4.5 4.35-1.6 1.55-3.1 3.2-1.05 1.15-2.05 2.35-0.2 0.2-0.45 0.3 2.55 0.75 4.95 1.45 3.25-3.95 6.25-7.5 2.95-3.6 6-7 2.35-2.8 4.85-5.4l0.05-0.1q1.75-1.85 3.45-3.8 2.9-3.45 4.7-5.65 1.75-2.15 0.8-2.95m11.35 0.6q-1.15-0.35-4.05-0.6-2.8-0.25-3.8 0.35-1 0.65-1.75 1.4-0.7 0.7-3.15 3.55-2.5 2.9-3.6 4.15-1.2 1.3-3.3 3.6v0.05q-2.05 2.3-4.75 5.5-2.95 3.55-5.8 7.15-2.45 2.95-4.9 5.95-0.45 0.55-0.9 1.1 2.5 0.7 5.15 1.45 1.35-1.4 3.7-4.1 9.05-10.4 12.85-14.3h0.05q0.8-0.85 1.6-1.65 1.15 0.35 3.85 1.2 0.55 0.1 1.2 0.3 1.95-2.55 4-4.95 0.8-1.05 1.55-1.95 2.1-2.75 2.9-4.1 1.1-1.8 1.65-2.65 0.4 0.15-0.6-0.55-0.7-0.5-1.9-0.9z"/>
<path fill="#1a1818" d="m474.6 274.8c-1.0667 0.4-2.3 0.56667-3.7 0.5-3.4667-0.43333-9.3667-1.7-17.7-3.8l-167.75-46.65c-12.833-3.1333-25.717-6.1833-38.65-9.15-5.2333-1.1667-10.017-2.6333-14.35-4.4-0.33333 3.0333 0.2 6.3 1.6 9.8 18.933 5.1 33.833 9.2667 44.7 12.5 2.4667 0.73333 4.9833 1.4833 7.55 2.25l167.6 44.55c5 1.2 9.9667 2.4 14.9 3.6 0.23333 0.0667 0.46667 0.16667 0.7 0.3 0.9 0.3 1.7167 0.41667 2.45 0.35-0.0333 0-0.05 0.0167-0.05 0.05 0.36667 0.0333 0.73333 0.11667 1.1 0.25 1-0.0667 1.9667-0.26667 2.9-0.6-0.0333-0.13333-0.1-0.26667-0.2-0.4-0.3-0.7-0.46667-1.4833-0.5-2.35-0.0333-1.5667-0.13333-3.0667-0.3-4.5-0.13333-0.8-0.23333-1.5667-0.3-2.3m6.15-8.3c-0.43333 1.3333-1.4 3.1667-2.9 5.5-0.36667 0.6-0.78333 1.1-1.25 1.5 0.0667 0.43333 0.1 0.88333 0.1 1.35 0 1.5333 0.13333 3.0333 0.4 4.5 0.26667 1.3 0.48333 2.65 0.65 4.05 0.83333-0.5 1.5667-1.1167 2.2-1.85h0.05c0.1-0.16667 0.16667-0.31667 0.2-0.45 0.8-1.5333 4.6833-10.3 11.65-26.3 2.5-6.5667 5.3-13.05 8.4-19.45-0.13333-1.9667-0.18333-3.9333-0.15-5.9 0.0333-0.93333 0.0167-1.8-0.05-2.6-0.26667 0.53333-0.55 1.0833-0.85 1.65-4.2667 8.3333-8.4 16.667-12.4 25-1.3 2.7333-2 4.2-2.1 4.4-2.2333 4.3667-3.55 7.2333-3.95 8.6z"/>
</g>
<g transform="translate(-49.799 -56.15)">
<path fill="#25282b" d="m338.25 143.85c-1.5667 0.73333-3.0667 1.5841-4.5 2.5508-3 2.0667-5.2829 4.65-6.8496 7.75-0.93333 1.8-1.4333 3.7167-1.5 5.75v0.79883c0.0825 0.63818 12.154 5.1731 12.75 4.8516 0.0333-0.4-0.10039-0.81667-0.40039-1.25-0.8-1.1667-1.1837-2.4845-1.1504-3.9512 0.0667-1.4 0.28372-2.7663 0.65039-4.0996l0.5-1.8008c0.43217-0.4733 0.91954-9.9007 0.5-10.6z"/>
<path fill="#393b3e" d="m338.05 145.65-0.5 0.4c-0.43333 0.83333-1.4333 1.7167-3 2.65-1.8333 1.0667-3.4 2.5-4.7 4.3-1.3667 1.9-2.1 3.9833-2.2 6.25-0.0333 0.7-0.13333 1.3667-0.3 2 0.82405 0.97079 6.149 3.258 8.5 3.55-0.46667-0.7-0.76667-1.5333-0.9-2.5-0.23333-1.5333-0.2-3.0333 0.1-4.5 0.3-1.5667 0.8-3.0833 1.5-4.55 0.26667-0.53333 0.65-0.88333 1.15-1.05 0.12153-0.24441 0.45917-6.118 0.35-6.55z"/>
<path fill="#44474a" d="m393.15 81.301c-2.3 2.2-5.1333 4.7833-8.5 7.75-20.43 17.999-33.75 29.899-39.95 35.699-0.0333-0.0333-0.56628 0.40078-1.5996 1.3008-0.4 1.1-0.73333 2.0651-1 2.8984l-0.6 1.8c-0.4 0.76667-0.73333 1.6329-1 2.5996-1.0333 3.5-1.7833 7-2.25 10.5-0.0333 0.1-0.0508 0.20078-0.0508 0.30078-0.0667 0.5-0.11511 1-0.14844 1.5-0.23333 2.1667-0.35156 4.3488-0.35156 6.5488 0 0.76667 0.0175 1.5167 0.0508 2.25v0.5c0.1 2.8333 0.54961 5.2849 1.3496 7.3516 0.36667 1.1667 0.80078 2.2655 1.3008 3.2988l19.4 4.8008 31.148 6.4004 5.6016 1.1484 13.75 2.8008c0.23333 0.0333 1.3167 0.16706 3.25 0.40039 2.1667 0.33333 5.8159-1.6008 10.949-5.8008 2.3-1.9 4.7496-4.2004 7.3496-6.9004l6.0508-6.7988c1.3333-1.5667 2.6996-3.2333 4.0996-5 1.2333-1.6 2.5163-3.1833 3.8496-4.75l8.9512-10.801 3.3984-3.9004 7.4004-8.9492c0.53333-0.96667 1.0178-1.9841 1.4512-3.0508 4.0667-10.467 4.3496-21.098 0.84961-31.898l-0.4-0.102c-2.73-0.533-6.62-1.266-11.65-2.199-5.0333-0.93333-11.533-1.9508-19.5-3.0508-8-1.1333-14.932-2.0984-20.799-2.8984-5.8667-0.8-11.617-1.6508-17.25-2.5508-1.3333-0.2-3.0504-0.59922-5.1504-1.1992z"/>
<path fill="#bab7b7" d="m397.65 199.6q-0.2-0.6-0.2-0.8h-0.05q0.1 0.4 0.25 0.8"/>
<g fill="#25282b">
<path d="m130.89 81.438c-0.275-0.0083-0.5526-0.0049-0.83594 0.01172-0.5 0-1 0.06784-1.5 0.20117-0.23333 0.03333-0.45039 0.06628-0.65039 0.09961-0.46667-0.03333-0.95117-0.01589-1.4512 0.05078-0.26667 0.06667-0.54961 0.15-0.84961 0.25-0.16667 6.1 2.4012 11.648 7.7012 16.648 0.2 0.2 0.39961 0.38411 0.59961 0.55078 0.95649 0.16568 11.735-9.5734 11.75-10-0.13333 0.03333-0.26706 0.08372-0.40039 0.15039-1.2908 0.31365-3.4783 0.72366-3.7695 0.69922-2.6648-0.22368-4.2634-0.45-4.8301-0.75-0.6-0.3-1.0845-0.93372-1.4512-1.9004-0.36667-0.96667-0.79883-2.05-1.2988-3.25-0.5-1.2-1.2345-2.0992-2.2012-2.6992-0.26667-0.03333-0.5375-0.05417-0.8125-0.0625z"/>
<path d="m130.15 83.4c0.26667-0.03333 0.51667-0.03333 0.75 0 0.0333 0 0.0663 0.0155 0.0996 0.04883 0.0667 0.33333 0.15 0.65117 0.25 0.95117 0.16667 0.76667 0.38372 1.5322 0.65039 2.2988 0.23333 0.8 0.48333 1.55 0.75 2.25 0.1 0.16667 0.18333 0.33333 0.25 0.5 0 0.3 0.0155 0.56745 0.0488 0.80078-0.56667 0.2-1.0996 0.38411-1.5996 0.55078-0.63333 0.23333-1.2671 0.49883-1.9004 0.79883-0.23333-0.56667-0.44844-1.15-0.64844-1.75-0.53333-1.9333-1.0004-3.8829-1.4004-5.8496 0.16667-0.03333 0.34883-0.06628 0.54883-0.09961 0.36667-0.1 0.73489-0.18333 1.1016-0.25 0.36667-0.06667 0.73294-0.15 1.0996-0.25z"/>
<path d="m113.8 100.25c-0.5 0-1 0.0659-1.5 0.19922-0.23333 0.0667-0.45039 0.10156-0.65039 0.10156-0.46667-0.0333-0.95117-0.0179-1.4512 0.0488-0.26667 0.0667-0.54961 0.15-0.84961 0.25-0.16667 6.1 2.4012 11.668 7.7012 16.701 0.36667 0.33333 0.74844 0.66667 1.1484 1 0.32826-0.18743 5.7011-9.156 5.5508-9.5-0.1-0.0333-0.20078-0.0333-0.30078 0h-2.0488c-0.1-0.3-0.25117-0.56745-0.45117-0.80078-0.46667-0.63333-0.89883-1.2671-1.2988-1.9004-0.66667-1.0667-1.2829-2.1829-1.8496-3.3496-0.6-1.2-1.3849-2.0837-2.3516-2.6504-0.53333-0.1-1.0818-0.13295-1.6484-0.0996z"/>
<path d="m113.9 102.2c0.26667-0.0333 0.51667-0.0333 0.75 0 0.0333 0.0333 0.0663 0.0508 0.0996 0.0508 0.0667 0.33333 0.15 0.64922 0.25 0.94922 0.16667 0.76667 0.38372 1.5516 0.65039 2.3516 0.23333 0.76667 0.48333 1.4992 0.75 2.1992 0.1 0.16667 0.18333 0.33333 0.25 0.5 0 0.3 0.0155 0.56745 0.0488 0.80078-0.56667 0.2-1.0996 0.38216-1.5996 0.54883-0.63333 0.23333-1.2671 0.50078-1.9004 0.80078-0.23333-0.56667-0.44844-1.15-0.64844-1.75-0.53333-1.9333-1.0004-3.8829-1.4004-5.8496 0.16667-0.0333 0.34883-0.0683 0.54883-0.10156 0.36667-0.0667 0.73489-0.15 1.1016-0.25 0.36667-0.0667 0.73294-0.15 1.0996-0.25z"/>
</g>
<g fill="#6d6363">
<path d="m71.15 128.35c-0.3 0.0667-0.65078 0.16745-1.0508 0.30078-0.6 0.23333-1.1329 0.56667-1.5996 1-0.26667 0.3-0.51667 0.58294-0.75 0.84961-0.16667 0.23333-0.23255 0.51628-0.19922 0.84961 0 0.13333 0.0155 0.26706 0.04883 0.40039h-0.09961c-0.36667 0.0333-0.7 0.0663-1 0.0996-3.5 0.8-4.8837 2.9337-4.1504 6.4004l0.05078 0.0508c0.06667 0.0667 0.1655 0.18294 0.29883 0.34961-1 0.23333-1.7829 0.86706-2.3496 1.9004l-0.19922 0.39844c-0.43333 0.9-0.46628 1.8671-0.09961 2.9004 0.4 1.1333 1.1326 2.3504 2.1992 3.6504 1 1.3 2.4826 2.1663 4.4492 2.5996 1.9333 0.43333 3.4837 0.66784 4.6504 0.70117 1.1333 0 2.6178-0.0679 4.4512-0.20117 1.8333-0.1 3-0.21628 3.5-0.34961s1.5484-0.0829 3.1484 0.15039c-0.13333 1.9-0.86589 3.5996-2.1992 5.0996-0.96667 1.0667-1.3659 2.2837-1.1992 3.6504 0.13333 1.3333 0.78255 2.6667 1.9492 4 0.16667 0.2 0.33333 0.41706 0.5 0.65039-0.03333-0.1-0.06628-0.18333-0.09961-0.25 3.5667 2.6667 5.8826 2.2984 6.9492-1.1016 1.0667-3.4 2.4504-5.6326 4.1504-6.6992 1.6667-1.0667 3.1163-2.7508 4.3496-5.0508 1.4667 0.5 3.0674 0.36823 4.8008-0.39844 0.53333-0.16667 0.95-0.71706 1.25-1.6504 0.3-0.96667 0.46667-1.5829 0.5-1.8496 0.0177-0.24648 0-0.3684 0-0.5l-0.55078-6.3516c0-0.36667-0.0988-0.79883-0.29883-1.2988-0.23333-0.5-0.33411-0.80039-0.30078-0.90039-0.23333-0.5-0.45039-1-0.65039-1.5v-0.0508c-0.16667-0.36667-0.34883-0.7-0.54883-1-0.23333-0.33333-0.48333-0.63177-0.75-0.89844-0.43333-0.4-0.95078-0.70039-1.5508-0.90039-0.63333-0.2-1.2826-0.30078-1.9492-0.30078-0.6 0.1-1.1349 0.29961-1.6016 0.59961-0.1-0.0333-0.3655-0.0333-0.79883 0-0.86667 0.0667-2.3008-0.0825-4.3008-0.44922-2.0333-0.36667-3.0159-0.48294-2.9492-0.34961-1.8-0.26667-3.5345-0.65039-5.2012-1.1504-1.8-0.56667-3.55-1.2837-5.25-2.1504-1.7333-0.86667-3.5822-1.2833-5.5488-1.25z"/>
<path d="m225.41 148.13c-0.17292 0.0104-0.3431 0.0311-0.50977 0.0644-0.63333 0.0667-1.1837 0.28372-1.6504 0.65039-0.66667 0.43333-1.1996 0.98372-1.5996 1.6504-0.26667 0.5-0.54961 1-0.84961 1.5 0 0.0667-0.15117 0.33411-0.45117 0.80078-0.26667 0.43333-0.43333 0.85-0.5 1.25-0.0527 1.6832-1.6263 5.2788-1.4004 6.5996 0.0667 0.26667 0.20039 0.88294 0.40039 1.8496 0.16667 0.96667 0.38372 1.6159 0.65039 1.9492 1.5667 1 3.1326 1.3682 4.6992 1.1016 0.83333 2.4667 2.3682 4.6488 4.6016 6.5488 0.96667 0.9 1.4318 2.0163 1.3984 3.3496-0.0333 3.7667 1.4512 5.6174 4.4512 5.5508 0.76667 0.23333 1.5322 0.13255 2.2988-0.30078 1.2-0.36667 2.0004-1.0663 2.4004-2.0996 0.16667-0.16667 0.33333-0.36628 0.5-0.59961 0.0667-0.0667 0.1345-0.15 0.20117-0.25 0.16667-0.23333 0.28294-0.50078 0.34961-0.80078 0.36667-1.4333 0.25039-2.6833-0.34961-3.75-0.0667-0.13333-0.1345-0.24961-0.20117-0.34961-1.1-1.7-1.5826-3.5159-1.4492-5.4492 0.63333 0 1.1837 0.0329 1.6504 0.0996 0.73333 0.0667 1.2488 0.16745 1.5488 0.30078 0.43333 0.16667 1.5671 0.46511 3.4004 0.89844 1.7667 0.36667 3.2163 0.63411 4.3496 0.80078 1.1667 0.16667 2.7345 0.18411 4.7012 0.0508 2-0.16667 3.5988-0.80039 4.7988-1.9004 1.2667-1.1667 2.1833-2.2674 2.75-3.3008 0.56667-1.1 0.6345-2.1833 0.20117-3.25-0.33333-0.86667-0.80039-1.5004-1.4004-1.9004-0.2-0.16667-0.41706-0.29844-0.65039-0.39844 0.16667-0.1 0.28294-0.18333 0.34961-0.25l0.0508-0.0508c1.2333-3.3333 0.20039-5.6492-3.0996-6.9492-0.0667-0.0333-0.1345-0.0508-0.20117-0.0508-0.6-0.1-2.0671-0.51667-4.4004-1.25-3-0.96667-6.5988-1.3174-10.799-1.0508-0.56667 0.0333-1.0996 0.0683-1.5996 0.10156-3.3 0.23333-5.55 0.46589-6.75 0.69922-1.3667 0.23333-2.5682 0.0841-3.6016-0.44922-1.0333-0.56667-1.9151-0.96784-2.6484-1.2012-0.575-0.175-1.1219-0.24609-1.6406-0.21484z"/>
</g>
<path fill="#25282b" d="m115.35 139.35c-0.5 0.0333-0.98255 0.0663-1.4492 0.0996-0.9 0.1-1.8167 0.21823-2.75 0.35156-1.2333 0.13333-2.4678 0.21667-3.7012 0.25-1.5333 0.0667-3.0663 0.0317-4.5996-0.10156l-1.7-0.2c-0.0667-0.0333-0.1345-0.0508-0.20117-0.0508-1-0.13333-1.8818-0.0829-2.6484 0.15039-1.9192 0.84408-2.1271 4.2728 0.54883 6.2012 0.7 0.23333 1.5178 0.34961 2.4512 0.34961l2.0996-0.0996c0.86667-0.0667 1.7504-0.11706 2.6504-0.15039l3.6992-0.20117c1-0.0667 1.9826-0.13255 2.9492-0.19922 1.3667-0.0667 2.5004-0.31667 3.4004-0.75 0.12386-0.59872-0.36494-5.286-0.75-5.6504z"/>
<path fill="#6d6363" d="m98.85 136.55c-0.7 0.23333-1.2659 0.69844-1.6992 1.3984-0.16667 0.26667-0.31784 0.53411-0.45117 0.80078-0.43333 0.83333-0.69883 1.6996-0.79883 2.5996-0.06667 0.8-0.03372 1.5829 0.09961 2.3496 0.13333 0.76667 0.38333 1.5167 0.75 2.25 0.86667 1.9333 1.7659 2.1833 2.6992 0.75l-0.5-0.39844c-0.13333-0.13333-0.2651-0.25156-0.39844-0.35156l0.29883 0.10156-1.0488-1.1504c-0.26667-0.56667-0.41784-1.1674-0.45117-1.8008 0-0.16667 0.01745-0.33333 0.05078-0.5 0.03333-0.73333 0.18255-1.4155 0.44922-2.0488l0.45117-0.70117h-0.10156c0.06667-0.1 0.1345-0.21628 0.20117-0.34961 0.6-0.86667 0.88294-1.5663 0.84961-2.0996 0-0.33333-0.13372-0.61628-0.40039-0.84961z"/>
<path fill="#bab7b7" d="m96 143.7q-1.2 0.85-1.8 0.85t-0.95 0q1.35 4.55 6.7 4.65 0.1 0 0.25 0h0.05q0.1-0.05 0.2-0.1v-0.05q1.25-1.1 0.85-2.65-1.4 0-2.45-0.35l0.6 0.65q-1.4 2.15-2.7-0.75-0.55-1.1-0.75-2.25"/>
<path fill="#393b3e" d="m100.8 141.75q-0.85-0.15-1.6-0.45t-1.35-0.75q-0.4 0.95-0.45 2.05-0.05 0.25-0.05 0.5 0.05 0.95 0.45 1.8 6.25-0.45 12.75-0.7 2.6-0.15 5.2-0.45-0.15-0.85-0.25-1.75-0.05-0.75-0.1-1.55-1.5 0.95-3.85 1-2.3 0.05-4.6 0.45-3.1 0.5-6.15-0.15"/>
<g fill="#bab7b7">
<path d="m61.95 143.3q0.05 0.1 0.1 0.2 3.35 6.9 12.2 5.15 8.85-1.85 10.5 1.25 0.05 0.1-0.3 1.55-0.4 1.5-0.6 1.85-0.8 1.35-1.7 2.6-0.35 0.4-0.6 0.85-0.2 0.65-0.4 1.35 0 0.1 0 0.15 0 0.9 0.25 1.75 0 0.5 0.2 0.95 1.4 3.35 5 2.15 0.7-2.05 0.85-4.35 0.2-2.4 1.9-4.15 1-1.05 2.3-1.4 2.4-0.6 2.9-2.5 0.1-0.1 0.25-0.1 0-0.15 0.1-0.3t0.15-0.35q0.05-0.05 0.05-0.2-1.1-0.85-2.15-2.3-1.45-2.1-1.7-4.6-0.1-0.7-0.05-1.4-3.4 1.55-5.85 2.45-5.4 1.9-10.65 1.9-5.1 0-7.15-0.35-3.65-0.6-5.6-2.15"/>
<path d="m222.75 160.85q0.2-0.15 0.45-0.25-0.1 0-0.2 0.05-1.15 0.2-2.6 0-0.05 0.45 0 0.85 0 0.5 0.25 1 0.15 0.3 0.2 0.65 0.05 0.1 0 0.25 0.25 0.2 0.45 0.2 5.75 0.8 7.65-4.3-0.35 0-0.75 0-0.7 0.15-2.1-0.6-0.4 1.15-1.05 2.15-1.8 2.7-4.1 1.45 0.75-0.8 1.8-1.45"/>
<path d="m226.05 164.9q-0.05 0.1 0 0.2 0.05 0.2 0.1 0.35t0.1 0.3q0.1 0.05 0.2 0.2 0.2 1.9 2.45 2.85 1.25 0.55 2.05 1.75 1.5 1.95 1.25 4.4-0.2 2.3 0.25 4.4 3.35 1.75 5.25-1.35 0.25-0.45 0.3-0.9 0.4-0.8 0.55-1.65 0-0.1 0-0.2-0.1-0.7-0.2-1.4-0.2-0.5-0.45-0.9-0.7-1.35-1.25-2.85-0.15-0.4-0.35-1.9-0.1-1.5-0.05-1.65 1.05-1.4 3.8-1.25 2.6 0.15 6.75 1.7 8.5 3.05 12.9-3.3 0.75-1.15-0.4-2.75-0.25-0.35-0.55-0.55-1.1 0.65-2.45 1.25-4.2 1.9-7.5 1.9-3.5 0-8.75-1.4-0.55-0.2-1.15-0.35-4.25-1.25-8.05-2.9-0.65 2.3-2.4 4.05-1.15 1.3-2.4 1.95"/>
</g>
<g fill="#fff">
<path d="m98.85 136.55c0.26667 0.23333 0.4 0.51667 0.4 0.85 0.03333 0.53333-0.25 1.2333-0.85 2.1-0.06667 0.13333-0.13333 0.25-0.2 0.35h0.1c0.76667-0.23333 1.65-0.28333 2.65-0.15 0.0667 0 0.13333 0.0167 0.2 0.05-0.16667-1.0333-0.56667-1.9333-1.2-2.7-0.36667-0.46667-0.8-0.88333-1.3-1.25-1.8-1.2667-3.3-0.86667-4.5 1.2-0.66667 1.1667-1.0833 2.3833-1.25 3.65-0.1 0.83333-0.08333 1.6833 0.05 2.55 0.06667 0.46667 0.16667 0.91667 0.3 1.35h0.95c0.4 0 1-0.28333 1.8-0.85-0.13333-0.76667-0.16667-1.55-0.1-2.35 0.1-0.9 0.36667-1.7667 0.8-2.6 0.13333-0.26667 0.28333-0.53333 0.45-0.8 0.43333-0.7 1-1.1667 1.7-1.4"/>
<path d="m79.4 132.4c-2.0333-0.5-4-1.0667-5.9-1.7-2.4333-0.86667-3.85-0.48333-4.25 1.15 0.43333 0.0667 0.85 0.16667 1.25 0.3 0.03333 0 0.06667 0.0167 0.1 0.05 0.23333 0.0333 0.48333 0.1 0.75 0.2 0.1 0 0.21667 0.0333 0.35 0.1 0.46667 0.13333 1.65 0.46667 3.55 1 0.63333 0.13333 1.1833 0.26667 1.65 0.4 1.4333 0.43333 2.3333 0.71667 2.7 0.85 0.33333 0.13333 1.7167 0.46667 4.15 1-1.6333 0.23333-3.95 0.05-6.95-0.55h-0.05c-0.33333 0-1.4333-0.23333-3.3-0.7-3.3667-0.86667-5.2667-1.3-5.7-1.3-0.43333-0.0333-0.78333 0-1.05 0.1-3 0.76667-3.8833 2.4167-2.65 4.95 0.23333 0.2 0.55 0.25 0.95 0.15 0.3 0.0333 1.6333 0.16667 4 0.4 0.3 0.0333 0.6 0.0833 0.9 0.15l-0.25-0.15 1.1 0.35 0.1 0.05h0.2c1.0667 0.3 2.1833 0.6 3.35 0.9 1.9333 0.46667 4.0167 0.65 6.25 0.55 2.2-0.13333 3.0667-0.0167 2.6 0.35-3.4333 0.63333-6.3167 0.76667-8.65 0.4-2.3667 0.0667-4.7-0.25-7-0.95s-3.9-0.56667-4.8 0.4c-0.83333 0.83333-1.1167 1.65-0.85 2.45 1.3 1.0333 3.1667 1.75 5.6 2.15 1.3667 0.23333 3.75 0.35 7.15 0.35 3.5 0 7.05-0.63333 10.65-1.9 1.6333-0.6 3.5833-1.4167 5.85-2.45 0-0.36667 0.01667-0.75 0.05-1.15 0.2-1.6667 0.75-3.1833 1.65-4.55 0.13333-0.16667 0.25-0.31667 0.35-0.45-0.5-0.0333-1.1-0.0833-1.8-0.15-2.1667-0.16667-4.2667-0.53333-6.3-1.1-2-0.56667-3.9167-1.1167-5.75-1.65"/>
<path d="m224.3 154.25c-0.73333-1.5-0.71667-2.4833 0.05-2.95 0.63333 0.3 1.1333 0.85 1.5 1.65 0.5 1.1333 0.71667 2.3 0.65 3.5-0.0667 0.8-0.2 1.55-0.4 2.25 0.93333 0.5 1.6333 0.7 2.1 0.6h0.75c0.0333-0.16667 0.0833-0.35 0.15-0.55 0.7-2.1333 0.65-4.25-0.15-6.35-0.93333-2.2333-2.3667-2.85-4.3-1.85-1.5333 0.8-2.5667 1.9833-3.1 3.55 0.0667-0.0333 0.15-0.0333 0.25 0 0.86667 0 1.65 0.13333 2.35 0.4 0.13333 0.0333 0.25 0.0833 0.35 0.15l-0.2-0.4"/>
<path d="m239.4 152.75h0.65c2.0667-0.1 3.2667-0.2 3.6-0.3 0.4-0.0667 1.3167-0.21667 2.75-0.45 0.5-0.0667 1.0667-0.13333 1.7-0.2 1.4-0.16667 2.4333-0.28333 3.1-0.35-0.36667-0.1-0.71667-0.2-1.05-0.3-2.3-0.76667-4.65-1-7.05-0.7-1.0333 0.13333-2.05 0.26667-3.05 0.4-3.2 0.36667-6.35 0.76667-9.45 1.2 0.5 1.3 0.71667 2.6667 0.65 4.1 0 0.46667-0.0333 0.93333-0.1 1.4-0.0333 0.23333-0.0833 0.48333-0.15 0.75-0.0333 0.2-0.0833 0.4-0.15 0.6 2.5333 1.1 5.2167 2.0667 8.05 2.9 0.4 0.1 0.78333 0.21667 1.15 0.35 3.5 0.93333 6.4167 1.4 8.75 1.4 2.2 0 4.7-0.63333 7.5-1.9 0.9-0.4 1.7167-0.81667 2.45-1.25-0.86667-0.63333-2.25-0.81667-4.15-0.55-2.3667 0.36667-4.7167 0.33333-7.05-0.1-2.1333 0.0333-4.6333-0.41667-7.5-1.35-0.3-0.13333-0.61667-0.25-0.95-0.35-0.26667-0.3 0.05-0.38333 0.95-0.25 0.43333 0.0333 1 0.13333 1.7 0.3 2.1333 0.43333 4.2 0.56667 6.2 0.4 1.2333-0.1 2.3833-0.23333 3.45-0.4h0.3l1.2-0.2-0.3 0.1h0.95c2.3667 0.16667 3.6833 0.25 3.95 0.25h0.05c0.36667 0.13333 0.66667 0.13333 0.9 0 1.6333-2.3333 1-4.1-1.9-5.3-0.2-0.16667-0.51667-0.26667-0.95-0.3-0.43333-0.0667-2.3833 0.0667-5.85 0.4-1.9333 0.2-3.05 0.26667-3.35 0.2h-0.05c-2.6667 0.1-4.7667 0-6.3-0.3-0.23333-0.0667-0.45-0.13333-0.65-0.2"/>
<path d="m351.8 129.3c-0.6-0.13333-1.2-0.25-1.8-0.35l-4.8-0.9c-0.2-0.0333-0.41667-0.0667-0.65-0.1-0.1 0.33333-0.18333 0.66667-0.25 1-0.8 2.8-1.6833 5.5833-2.65 8.35-1.5 4.2333-2.0833 8.5-1.75 12.8 0.3 4.3333 0.81667 8.6333 1.55 12.9l0.4 2.3 19 3.55 49.45 9.4c1.2333 0.33333 2.45 0.73333 3.65 1.2 1.3-3.4333 2.3333-7.05 3.1-10.85 0.8-4.2333 1.1667-8.0833 1.1-11.55-0.1-3.5-0.35-6.5333-0.75-9.1-0.4-2.6-0.7-5.2333-0.9-7.9-3.5333-0.63333-6.4167-1.1167-8.65-1.45-17.5-2.6-34.917-5.4667-52.25-8.6"/>
</g>
<path fill="#6d6363" d="m354.63 158.68c-0.43854-0.007-0.89778 0.0161-1.377 0.0703-1.0667 0.3-2.0163 0.86589-2.8496 1.6992-2.4667 2.5-5.2496 4.1182-8.3496 4.8516-0.53333 0.13333-1.0837 0.23216-1.6504 0.29883-0.5 0.0667-1.0174 0.11706-1.5508 0.15039l-0.69922-0.19922-2.3008-0.75c-0.23333-0.13333-0.48333-0.23411-0.75-0.30078-1.5667-0.53333-3.0996-1.0992-4.5996-1.6992-0.13333-0.0667-0.24961-0.1345-0.34961-0.20117-0.9-0.56667-1.8341-1.0163-2.8008-1.3496l-1.9492-0.55078-4-1c-1.5-0.36667-3.0504-0.45-4.6504-0.25-1.7667 0.7-3.2667 1.8008-4.5 3.3008-0.6 0.73333-1.2008 1.4504-1.8008 2.1504-0.33333-0.0333-0.64922-0.0508-0.94922-0.0508h-0.25c-0.16667 0.0333-0.31589 0.0837-0.44922 0.15039l-2.8 1.2c-2.0333 0.83333-4.0837 1.6337-6.1504 2.4004-2.6 0.93333-4.1988 2.5167-4.7988 4.75 0.0333 0.33333 0.0817 0.66667 0.14844 1 0.0667 0.46667 0.18489 0.91628 0.35156 1.3496 0.46667 1.3667 1.3 2.5333 2.5 3.5 0.16667 0.0667 0.34883 0.1345 0.54883 0.20117 1.4667 0.6 2.7496 0.73372 3.8496 0.40039h0.10156c0.43333-0.16667 0.83255-0.38372 1.1992-0.65039 0.4 0.4 0.9 0.76628 1.5 1.0996 0.26667 0.13333 0.51667 0.26706 0.75 0.40039 2.0667 0.93333 3.9659 1.1504 5.6992 0.65039-0.0333 0.0667-0.0488 0.13255-0.0488 0.19922-0.13333 0.9-0.13333 1.7837 0 2.6504 1.2 1.1667 2.6322 1.8004 4.2988 1.9004h0.35156c2.6333 0.86667 4.9492 0.45 6.9492-1.25 0.56667 0.33333 1.2333 0.48255 2 0.44922 1.2333-0.0333 2.4659-0.13411 3.6992-0.30078 1.2667-0.16667 2.4333-0.64922 3.5-1.4492 0.2-0.13333 0.38411-0.28255 0.55078-0.44922 2.3 0.5 4.6508-0.13372 7.0508-1.9004 1.4333-1.1 2.7318-2.3345 3.8984-3.7012 0.26667-0.3 0.50117-0.61589 0.70117-0.94922 1.7-0.23333 3.3667-0.50078 5-0.80078 3.1667-0.63333 6.0329-1.9163 8.5996-3.8496 0.6-0.46667 1.1174-0.94922 1.5508-1.4492 0.43333-0.5 0.78216-1.0174 1.0488-1.5508 0.73333-1.6 0.73333-3.4333 0-5.5-1.0792-3.0625-3.1529-4.6189-6.2227-4.6699z"/>
<g fill="#bab7b7">
<path d="m302.55 176.6q-0.45-1.4 0.5-3-1.35 0.75-2.3 1.1-1.15 0.45-3.05 0.75 0.95 2.5 4 1.55 0.1-0.05 0.2-0.15 0.05-0.1 0.1-0.2h0.05q0.25-0.05 0.5-0.05"/>
<path d="m326.65 164.85q-0.65-0.2-1.3-0.55-1.55-0.7-3.25-1.05-2.05 2.95-5.3 6.6-6.55 7.35-10.7 7.35-0.0984 0-0.2 0 0.0516 0.002 0.1 0.05 0.35 0.2 0.65 0.4 2.8 1 5.55 0.35 0.35-0.1 0.75-0.15 0.55-1.15 1.25-2.15 0.25-0.35 0.55-0.45 0.6-1.35 1.2-2.65 3.05-6.55 10.05-7.7 0.4 0 0.8 0.05-0.1-0.05-0.15-0.1"/>
<path d="m350.35 163.5q-1.5 1.65-3.4 2.75-1.15 0.6-2.35 1.05-2.3 0.85-5.1 1.05 0 0.05 0 0.1-0.1 0-0.15 0-0.35 0.1-0.65 0.15v-0.05q-0.35-0.05-0.7-0.1v-0.05q-2.6-0.05-5.35-0.7-0.8 0.1-1.65 0.1-3.95 0.1-5.05 1.4-0.4 0.5-2.5 5.9-1.7 4.4-4.4 8.25 3.15-0.8 5.25-4.35 1.5-2.55 2.15-5.45 0.4-1.9 1.55-2.95 0.35 1.85-0.05 4 0.25-0.05 0.55-0.05 0.5 0 0.95 0 0.7 0.35 1.5 0.5 1.1 0.15 2.15 0.1-0.2 0.3-0.55 0.4-2.35 0.75-4.8 0.35-0.3 2.55-1.55 4.95-0.65 1.25-1.4 2.25 2.8-0.2 5.4-1.2-0.15-0.1-0.2-0.25-0.2-0.1-0.45-0.15-0.95-0.3-0.9-1.3 0.3-0.1 0.6-0.15 0.55 0.1 1.15 0.2 0.35 0.4 1.05 0.55 0.65 0.15 1.35 0.25 2.45-0.4 5.15-1.65 2.65-1.3 4.15-3.75 1.45-2.5 6.5-2.25 4.65 0.2 7.65-3.7 0.2-0.35 0.45-0.7 0.3-0.4 0.5-0.8 2.3-4.05-0.15-6.4-2.75-2.6-6.7 1.7z"/>
</g>
<g fill="#fff">
<path d="m307.95 167.8c-0.16667 0-0.33333 0.0167-0.5 0.05-0.46667 0.2-0.95 0.41667-1.45 0.65-0.66667 0.33333-1.35 0.66667-2.05 1l-3 1.5c0-0.0333-0.0167-0.05-0.05-0.05-0.46667 0.13333-0.95 0.28333-1.45 0.45-0.83333 0.3-1.4167 0.86667-1.75 1.7-0.33333 0.7-0.35 1.4333-0.05 2.2 0 0.0333 0.0167 0.0833 0.05 0.15 1.2667-0.2 2.2833-0.45 3.05-0.75 0.63333-0.23333 1.4-0.6 2.3-1.1 0.1-0.2 0.23333-0.4 0.4-0.6l0.5-0.6c0.33333-0.53333 0.71667-1.0333 1.15-1.5 0.3-0.33333 0.6-0.65 0.9-0.95 0.63333-0.7 1.2833-1.4167 1.95-2.15"/>
<path d="m310.1 169.2c-0.8 0.96667-1.6667 1.9-2.6 2.8-0.5 0.5-1 0.96667-1.5 1.4l-0.15 0.15c-0.56667 0.5-0.96667 1.1167-1.2 1.85-0.0667 0.2-0.1 0.41667-0.1 0.65 0.13333 0.16667 0.3 0.33333 0.5 0.5 0.3 0.23333 0.58333 0.45 0.85 0.65h0.2c2.7667 0 6.3333-2.45 10.7-7.35 2.1667-2.4333 3.9333-4.6333 5.3-6.6-0.13333-0.0333-0.28333-0.0667-0.45-0.1-0.4-0.0667-0.76667-0.16667-1.1-0.3-1.2-0.13333-2.4167-0.21667-3.65-0.25-0.3 0.33333-0.65 0.65-1.05 0.95-0.96667 0.7-1.8833 1.4833-2.75 2.35-1.0333 1.0667-2.0333 2.1667-3 3.3"/>
<path d="m331 167.8c0.56667 0 1.1167-0.0333 1.65-0.1-0.3-0.1-0.58333-0.18333-0.85-0.25-0.16667-0.0333-0.3-0.0833-0.4-0.15h-0.05c-1.3667-0.2-2.7-0.33333-4-0.4-1.2333 0.4-2.5667 0.76667-4 1.1-1.3333 0.3-2.4333 1.0833-3.3 2.35-1.2667 1.8667-2.45 3.8167-3.55 5.85-0.73333 1.4-1.4667 2.8167-2.2 4.25-0.16667 0.56667-0.3 1.1333-0.4 1.7-0.1 0.0667-0.16667 0.11667-0.2 0.15 0.1 0.33333 0.26667 0.63333 0.5 0.9 1.7667 0.46667 3.3833 0.51667 4.85 0.15 1.8-2.5667 3.2667-5.3167 4.4-8.25 1.4-3.6 2.2333-5.5667 2.5-5.9 0.73333-0.86667 2.4167-1.3333 5.05-1.4"/>
<path d="m368.15 134.05c1.6667 1.3333 3.0667 2.8667 4.2 4.6 1.1 1.6333 1.7167 3.4833 1.85 5.55 0.2 1.0667 0.31667 2.2333 0.35 3.5 0.1 4.6-1.8667 7.8833-5.9 9.85-1 0.5-2.0167 0.66667-3.05 0.5 0.23333 0.33333 0.41667 0.7 0.55 1.1-1.2667 0-2.4667-0.56667-3.6-1.7-1.0667-1.0667-2.2-2-3.4-2.8-1.9-1.2667-3.85-2.4333-5.85-3.5-1.2-0.66667-1.55-1.3-1.05-1.9 1.4 0.8 2.8167 1.5167 4.25 2.15-1.6333-2.7667-2.1667-6.1167-1.6-10.05 0.4-2.7 1.4667-4.7333 3.2-6.1-0.33333 0-0.65-0.05-0.95-0.15v-0.2l0.1-0.4c0-0.0667 0.0333-0.11667 0.1-0.15 0.0667-0.0667 0.11667-0.13333 0.15-0.2l0.2-0.2 0.2-0.2c0.0333-0.0667 0.0667-0.11667 0.1-0.15 0.1-0.13333 0.18333-0.26667 0.25-0.4 0.0667-0.0333 0.13333-0.05 0.2-0.05 0.43333-0.0667 0.81667-0.16667 1.15-0.3 0.63333-0.26667 1.3-0.4 2-0.4 0.13333 0 0.26667-0.0167 0.4-0.05 2.3-0.3 4.35 0.25 6.15 1.65"/>
<path d="m389.35 136.6c1-0.43333 2.0833-0.5 3.25-0.2 1.5667 0.33333 3.0667 0.88333 4.5 1.65s2.6167 1.8833 3.55 3.35c0.83333 1.3333 1.4167 2.8 1.75 4.4 0.0667 0.36667 0.11667 0.73333 0.15 1.1 0.4 0.83333 0.51667 1.7667 0.35 2.8-0.2 1.1667-0.5 2.3333-0.9 3.5-0.16667 0.46667-0.33333 0.95-0.5 1.45-0.16667 0.4-0.35 0.76667-0.55 1.1 0.83333 0 1.7333 0.25 2.7 0.75 0.2 0.1 0.38333 0.2 0.55 0.3-1.4 0.23333-2.4833 0.43333-3.25 0.6-1.1333 0.1-2.25 0.26667-3.35 0.5l-0.8 0.2c-0.1 0-0.18333 0.0167-0.25 0.05-1.3333 0.46667-2.6833 0.88333-4.05 1.25-1.8667 0.5-3.6333 1.15-5.3 1.95-0.96667-0.23333-1.85-0.7-2.65-1.4-3.5-3.1667-4.6167-7.0833-3.35-11.75 1.3333-4.8667 4.1333-8.2 8.4-10-1 0.0333-2 0.18333-3 0.45-0.0667-0.23333-0.0167-0.43333 0.15-0.6 0.3-0.3 0.63333-0.55 1-0.75l1.6-0.7"/>
<path d="m404.85 156.65 0.05 0.05h-0.05v-0.05"/>
<path d="m390.85 162.9c1 0.0333 2-0.0167 3-0.15 1.4-0.23333 2.7333-0.33333 4-0.3 1.1667 0.1 2.2 0.38333 3.1 0.85 0.9 0.43333 1.6167 1 2.15 1.7 0.53333 0.66667 1.05 1.2667 1.55 1.8-2.5333-1.5-5.55-2.25-9.05-2.25-2.7 2.0667-5.8 3.65-9.3 4.75-3.7667 1.2-7.5833 1.3167-11.45 0.35-3.2333-0.76667-6.2-2.2167-8.9-4.35-1.7-1.3333-2.4333-2.6167-2.2-3.85 2.7333 2.2 5.6667 4.0667 8.8 5.6 3.1667 1.5333 6.5167 1.95 10.05 1.25 3.4333-0.66667 6.7167-1.8167 9.85-3.45l0.2-0.1c-1.2667-0.0667-2.3333-0.43333-3.2-1.1 0.23333-0.5 0.7-0.75 1.4-0.75"/>
</g>
<g fill="#51676d">
<path d="m120.1 113.75c-0.1-0.1-0.2-0.18333-0.3-0.25-0.96667-0.7-1.7167-1.4167-2.25-2.15-0.26667 0.0333-0.55 0.0833-0.85 0.15-0.36667 0.0667-0.75 0.0833-1.15 0.05-0.3 0.1-0.6 0.21667-0.9 0.35-0.16667 0.1-0.35 0.16667-0.55 0.2 0.9 1.7667 2.5333 3.3 4.9 4.6 0.18876-0.0964 1.3972-2.5709 1.4004-2.7508"/>
<path d="m136.65 92.5h-0.3c0.83333 0.86667 1.7333 1.6 2.7 2.2 0.22813-0.05573 2.6917-2.088 2.75-2.3h-0.05c-2.1667 0.7-3.8667 0.73333-5.1 0.1"/>
<path d="m130.9 93.1c-0.16667 0.1-0.35 0.15-0.55 0.15 0.93333 1.8 2.6 3.3667 5 4.7 0.30282-0.05937 2.3901-1.8036 2.45-2.15-0.6-0.33333-1.1833-0.7-1.75-1.1-0.96667-0.7-1.7167-1.4167-2.25-2.15-0.26667 0.03333-0.55 0.08333-0.85 0.15-0.36667 0.06667-0.75 0.08333-1.15 0.05-0.3 0.1-0.6 0.21667-0.9 0.35"/>
</g>
<path fill="#f1fdff" d="m460 96.95c1.0333-0.96667 2.1-1.9 3.2-2.8-1.6667-0.23333-3.3167-0.46667-4.95-0.7-14.93-2.033-29.85-4.183-44.75-6.45-5.1667-0.8-10.317-1.8167-15.45-3.05-1.5-0.36667-3.0167-0.66667-4.55-0.9-5.1333 5.1333-10.483 10.133-16.05 15-8.9 7.8333-17.8 15.633-26.7 23.4-1.5667 1.3667-3.1167 2.75-4.65 4.15 2.3333 0.4 4.6667 0.78333 7 1.15l5.3 0.85c2.8 0.46667 5.6 0.91667 8.4 1.35l14.8 2.3c11.8 1.8 23.467 4.1333 35 7 2.9-3.2667 6.0333-6.3667 9.4-9.3l0.1-0.1c5.8-5.0667 11.483-10.317 17.05-15.75 5.6-5.4667 11.217-10.85 16.85-16.15"/>
<g>
<path d="m171.25 66.15c-2.3 2.2-5.1333 4.7833-8.5 7.75l-1.6992 1.5c-1.4667 1.2667-2.8833 2.5167-4.25 3.75-4.2 3.7-8.0508 7.1167-11.551 10.25 0.13333-0.06667 0.26706-0.11706 0.40039-0.15039-1.3 1.0333-2.5829 2.0837-3.8496 3.1504-0.93333 0.76667-1.85 1.5322-2.75 2.2988-0.43333 0.36667-0.85 0.7349-1.25 1.1016-0.83333 0.7-1.6512 1.4151-2.4512 2.1484-0.5 0.43333-0.98255 0.86745-1.4492 1.3008-2.6333 2.3333-5.2341 4.7326-7.8008 7.1992-0.36667 0.33333-0.7 0.68411-1 1.0508-0.5 0.5-0.94961 1.0174-1.3496 1.5508-0.26667 0.3-0.51667 0.61589-0.75 0.94922-0.43333 0.56667-1.2996 1.8826-2.5996 3.9492-0.55394 0.81622-0.99566 1.8262-1.4004 2.75-0.3 0.6-0.56745 1.2182-0.80078 1.8516-0.96667 2.4667-1.6663 5.0655-2.0996 7.7988-0.73333 4.3-0.98333 8.6333-0.75 13 0 0.36667 0.0175 0.73294 0.0508 1.0996 0.0333 0.53333 0.0663 1.0508 0.0996 1.5508 0.0667 0.6 0.15 1.1833 0.25 1.75 0.1 0.43333 0.21628 0.85 0.34961 1.25 0.26667 0.83333 0.65039 1.5833 1.1504 2.25 0.43333 1.4333 0.99922 2.7841 1.6992 4.0508 0.4 0.1 0.80117 0.21628 1.2012 0.34961l17.299 3.5488 16.65 3.4004 34.301 7c0.23333 0.0333 1.3167 0.16706 3.25 0.40039 1.7 0.26667 4.3337-0.88255 7.9004-3.4492 0.96667-0.66667 1.9822-1.4516 3.0488-2.3516 1.0667-0.86667 2.1674-1.8318 3.3008-2.8984l5.1-5.1c2.8333-3.0667 5.8663-6.6326 9.0996-10.699 1.6333-2.1 3.3174-4.1833 5.0508-6.25l9.85-11.7c1.6667-1.9 3.3508-3.8012 5.0508-5.7012 0.33333-0.4 0.66667-0.78372 1-1.1504 1.2-1.3333 2.2329-2.7984 3.0996-4.3984l3.6504-11.602c1.27-7.434 0.67-14.95-1.8-22.55l-0.40039-0.09961c-1.5-0.3-3.3488-0.65078-5.5488-1.0508-1.8-0.33333-3.8349-0.71706-6.1016-1.1504-5.0333-0.93333-11.533-1.9488-19.5-3.0488-5.4667-0.76667-10.432-1.4682-14.898-2.1016-2.0667-0.26667-4.0337-0.53216-5.9004-0.79883-5.8667-0.8-11.617-1.6508-17.25-2.5508-1.3333-0.2-3.0504-0.59922-5.1504-1.1992z"/>
<path d="m359.75 122.1c-1.4 0.4-2.7508 1.0337-4.0508 1.9004-0.86667 0.6-1.5992 1.3326-2.1992 2.1992-0.13333 0.16667-0.26706 0.35078-0.40039 0.55078-0.0667 0.13333-0.15 0.28255-0.25 0.44922-0.36667 0.56667-0.68255 1.15-0.94922 1.75-0.0333 0.1-0.0663 0.21823-0.0996 0.35156-0.16667 0.4-0.31784 0.79922-0.45117 1.1992l-0.59961 2.0996c0.0333 0.0333 0.0663 0.0837 0.0996 0.15039 0 0.0667 0.0175 0.13255 0.0508 0.19922 0.0333 0.0667 0.0837 0.1345 0.15039 0.20117l0.19922 0.19922c0.16667 0.0333 0.33333 0.0508 0.5 0.0508 0.2 0 0.38411-0.0329 0.55078-0.0996 0.1-0.0333 0.16589-0.0683 0.19922-0.10156 0.1-0.0667 0.18333-0.13255 0.25-0.19922 0.0333-0.0667 0.0663-0.11706 0.0996-0.15039l0.15-0.15c0.0333 0 0.0663 0.0175 0.0996 0.0508 0.6-0.7 1.2337-1.3841 1.9004-2.0508 0.0333-0.0333 0.0837-0.0663 0.15039-0.0996 0.13333-0.2 0.28255-0.39961 0.44922-0.59961 0.3-0.36667 0.61784-0.71745 0.95117-1.0508 0.26667-0.23333 0.54961-0.46589 0.84961-0.69922 0.33333-0.23333 0.66667-0.45039 1-0.65039 1.4333-0.8 2.9837-1.1004 4.6504-0.90039 1.2333 0.16667 1.6326-0.29844 1.1992-1.3984-0.76667-2-2.2667-3.0678-4.5-3.2012z"/>
<path d="m395.97 123.59c-0.20261-0.006-0.40886-0.003-0.61719 0.01-0.1 0-0.19883 0.0175-0.29883 0.0508-1 0.13333-1.7171 0.63333-2.1504 1.5-0.23333 0.5-0.41745 1-0.55078 1.5-0.1 0.5-0.16589 1.0155-0.19922 1.5488-0.0333 0.26667-0.0508 0.51667-0.0508 0.75-0.0333 0.0667-0.0488 0.1345-0.0488 0.20117-0.0333 0.2 0.0151 0.38216 0.14844 0.54883 0.23333 0.26667 0.53372 0.36745 0.90039 0.30078 2.5667-0.43333 4.8341 0.0996 6.8008 1.5996 0.93333 0.73333 1.6988 1.6345 2.2988 2.7012 0.36667 0.63333 0.91706 0.86589 1.6504 0.69922 0.36667-0.5 0.51784-1.1163 0.45117-1.8496-0.2-1.5-0.63411-2.9012-1.3008-4.2012l-0.19922-0.29883c-0.73333-1.3333-1.7333-2.5329-3-3.5996-1.1375-0.93333-2.4158-1.4208-3.834-1.4609z"/>
<path d="m362.85 132.33c-0.27969 0.0109-0.56406 0.0348-0.85156 0.0723-0.13333 0.0333-0.26706 0.0488-0.40039 0.0488-0.7 0-1.3667 0.13372-2 0.40039-0.33333 0.13333-0.71706 0.23411-1.1504 0.30078-0.0667 0-0.13255 0.0155-0.19922 0.0488-0.0667 0.13333-0.15 0.26706-0.25 0.40039-0.0333 0.0333-0.0663 0.0837-0.0996 0.15039l-0.20117 0.19922-0.19922 0.20117c-0.0333 0.0667-0.0837 0.13255-0.15039 0.19922-0.0667 0.0333-0.0996 0.0837-0.0996 0.15039l-0.0996 0.40039v0.19922c0.3 0.1 0.61589 0.15039 0.94922 0.15039-1.7333 1.3667-2.7992 3.3996-3.1992 6.0996-0.56667 3.9333-0.0337 7.2841 1.5996 10.051-1.4333-0.63333-2.85-1.3504-4.25-2.1504-0.5 0.6-0.14922 1.2337 1.0508 1.9004 2 1.0667 3.9496 2.2333 5.8496 3.5 1.2 0.8 2.3337 1.7322 3.4004 2.7988 1.1333 1.1333 2.3329 1.7012 3.5996 1.7012-0.13333-0.4-0.31745-0.76628-0.55078-1.0996 1.0333 0.16667 2.0508 0 3.0508-0.5 4.0333-1.9667 6.0004-5.2516 5.9004-9.8516-0.0333-1.2667-0.15156-2.4333-0.35156-3.5-0.13333-2.0667-0.74961-3.9155-1.8496-5.5488-1.1333-1.7333-2.5326-3.2663-4.1992-4.5996-1.575-1.225-3.341-1.7992-5.2988-1.7227z"/>
<path d="m362.75 135.45c6.2333 0.76667 9.5667 4.3674 10 10.801 0.13333 2.1-0.18255 3.8829-0.94922 5.3496 0.0333-0.76667-0.10039-1.5826-0.40039-2.4492-0.73333-2.2-2.2004-3.5333-4.4004-4-0.46667 0-0.96667 0.0329-1.5 0.0996-2.1333 0.3-3.5171 1.4841-4.1504 3.5508-0.36667 1.1333-0.54883 2.3155-0.54883 3.5488 0 0.36667 0.0484 0.6845 0.14844 0.95117-0.0667-0.0667-0.13255-0.15-0.19922-0.25-1.5667-1.9667-2.5163-4.1333-2.8496-6.5-0.36667-2.1333-0.2-4.4182 0.5-6.8516 0.33333-1.1667 0.89922-2.0988 1.6992-2.7988v-0.15039c0.36667-0.33333 0.75039-0.58333 1.1504-0.75h0.0508c0.43333-0.23333 0.91589-0.41745 1.4492-0.55078z"/>
<path d="m390.91 136.22c-0.54167 0.0333-1.0625 0.15833-1.5625 0.375l-1.5996 0.70117c-0.36667 0.2-0.7 0.45-1 0.75-0.16667 0.16667-0.21706 0.36628-0.15039 0.59961 1-0.26667 2-0.41784 3-0.45117-4.2667 1.8-7.0671 5.1333-8.4004 10-1.2667 4.6667-0.14844 8.5833 3.3516 11.75 0.8 0.7 1.6818 1.1671 2.6484 1.4004 1.6667-0.8 3.4341-1.4492 5.3008-1.9492 1.3667-0.36667 2.7174-0.78333 4.0508-1.25 0.0667-0.0333 0.15-0.0508 0.25-0.0508l0.79883-0.19922c1.1-0.23333 2.2163-0.4 3.3496-0.5 0.76667-0.16667 1.85-0.36628 3.25-0.59961-0.16667-0.1-0.34883-0.20078-0.54883-0.30078-0.96667-0.5-1.8678-0.75-2.7012-0.75 0.2-0.33333 0.38411-0.69961 0.55078-1.0996 0.16667-0.5 0.33333-0.9845 0.5-1.4512 0.4-1.1667 0.70039-2.3333 0.90039-3.5 0.16667-1.0333 0.0504-1.9655-0.34961-2.7988-0.0333-0.36667-0.0837-0.73294-0.15039-1.0996-0.33333-1.6-0.91667-3.0671-1.75-4.4004-0.93333-1.4667-2.1174-2.5829-3.5508-3.3496-1.4333-0.76667-2.9333-1.3171-4.5-1.6504-0.58334-0.15-1.1458-0.20911-1.6875-0.17578z"/>
<path d="m390.38 139.55c0.725-0.0187 1.4508 0.0473 2.1758 0.19727 6.2667 1.4333 8.6 5.3171 7 11.65-0.7 2.6-1.8841 4.5496-3.5508 5.8496-0.26667 0.0333-0.51667 0.0663-0.75 0.0996l-1.0996 0.20117c-0.2 0-0.38411 0.0155-0.55078 0.0488 0.73333-0.9 1.1171-2.0163 1.1504-3.3496 0.0667-1.5667-0.26667-3.0492-1-4.4492-0.96667-1.8667-2.55-2.8182-4.75-2.8516-0.96667 0.0667-1.8329 0.4-2.5996 1-1.4667 1.1333-2.4163 2.6178-2.8496 4.4512-0.0667 0.23333-0.10156 0.48333-0.10156 0.75-0.46667-5.5333 1.6012-10.051 6.2012-13.551 0.24167-0.025 0.48294-0.0406 0.72461-0.0469z"/>
<path d="m404.85 156.65v0.0488h0.0508z"/>
<path d="m363.75 161.45c-0.23333 1.2333 0.49922 2.5182 2.1992 3.8516 2.7 2.1333 5.6671 3.5829 8.9004 4.3496 3.8667 0.96667 7.6845 0.85039 11.451-0.34961 3.5-1.1 6.5988-2.6833 9.2988-4.75 3.5 0 6.5174 0.75 9.0508 2.25-0.5-0.53333-1.0174-1.1341-1.5508-1.8008-0.53333-0.7-1.2504-1.2659-2.1504-1.6992-0.9-0.46667-1.9329-0.75156-3.0996-0.85156-1.2667-0.0333-2.6 0.0675-4 0.30078-1 0.13333-2 0.18372-3 0.15039-0.7 0-1.1671 0.25-1.4004 0.75 0.86667 0.66667 1.9345 1.0329 3.2012 1.0996l-0.20117 0.0996c-3.1333 1.6333-6.4163 2.7845-9.8496 3.4512-3.5333 0.7-6.8822 0.28333-10.049-1.25-3.1333-1.5333-6.0674-3.4016-8.8008-5.6016z"/>
</g>
<path fill="#141414" d="m243.8 80.8c-0.0667-0.16667-0.11667-0.33333-0.15-0.5-1.2 1.1-1.9833 1.8167-2.35 2.15-0.43333 0.36667-0.85 0.75-1.25 1.15-5.3667 4.9-10.717 9.9333-16.05 15.1-5.7333 5.6-11.517 11.1-17.35 16.5-2.1333 2-4.5 4.1667-7.1 6.5-1.2333 1.1-2.5167 2.2333-3.85 3.4 0.86667 3.5 1.4167 7.1667 1.65 11 0.26667 4.3667 0.13333 8.7333-0.4 13.1-0.5 4.3333-1.2667 8.6167-2.3 12.85-0.2 0.73333-0.45 1.3833-0.75 1.95 2-0.9 3.8833-2.0333 5.65-3.4 1.4-1.1 2.75-2.35 4.05-3.75 0.0333-0.0333 0.0833-0.0667 0.15-0.1l4.75-5.25c4.9333-5.4667 9.7833-10.95 14.55-16.45l9.75-11.65c2.5-3.2 4.9167-6.4167 7.25-9.65 0.33333-0.5 0.68333-0.98333 1.05-1.45l4.5-10.8c0.73333-7.0667 0.13333-13.967-1.8-20.7z"/>
<path fill="#25282b" d="m202.5 149.65c-2.0333 0.3-2.9829 1.3833-2.8496 3.25 0.0667 1.8667 1.1326 3.0663 3.1992 3.5996 0.3 0.0667 0.60039 0.15 0.90039 0.25 0.7 0.16667 1.4171 0.35078 2.1504 0.55078l1.1992 0.29883c0.63333 0.26667 1.3504 0.50117 2.1504 0.70117 0.93333 0.16667 1.9004 0.36628 2.9004 0.59961 2.2333 0.46667 4.4833 0.93372 6.75 1.4004l4.1992 0.29883c0.66809-0.038 0.82736-0.5216 1.0004-0.94961 0.24985-0.61804 0.67191-3.7133 0.6-4.3-0.0316-0.25774-0.16735-0.59023-0.50078-0.75039l-4.3496-0.54883c-1.5-0.1-3.0155-0.30156-4.5488-0.60156-1.2333-0.26667-2.4349-0.54961-3.6016-0.84961-0.13333-0.0333-0.26511-0.0837-0.39844-0.15039v-0.0488l-0.3-0.2c-0.43333-0.23333-0.91589-0.4-1.4492-0.5-0.36667-0.0667-0.71745-0.13255-1.0508-0.19922-0.46667-0.1-0.91628-0.18333-1.3496-0.25-0.83333-0.16667-1.6337-0.41667-2.4004-0.75-0.73333-0.36667-1.4833-0.6496-2.25-0.84961z"/>
<path fill="#393b3e" d="m201.35 151.7c-0.9 1.3-0.55 2.2333 1.05 2.8 0.66667 0.26667 1.3667 0.51667 2.1 0.75-0.0667-0.1-0.11667-0.2-0.15-0.3 0.3-0.0333 0.56667 0.05 0.8 0.25l0.05 0.05c0.13333 0.2 0.33333 0.31667 0.6 0.35 0.13333 0.0667 0.28333 0.13333 0.45 0.2l0.45 0.1c0.16667 0.0333 0.35 0.0833 0.55 0.15 0.1 0 0.21667 0.0167 0.35 0.05 0.63333 0.16667 1.2833 0.35 1.95 0.55 0.66667 0.13333 1.35 0.26667 2.05 0.4 4.3 0.86667 8.4667 1.7333 12.5 2.6 0.77983-1.6449 0.79311-3.1784 0.6-4.3-0.0333 0.0333-0.0667 0.05-0.1 0.05-0.83333 0.43333-1.8167 0.68333-2.95 0.75-2.1 0.1-4.15-0.16667-6.15-0.8-1.4667-0.53333-2.95-0.91667-4.45-1.15-0.56667-0.1-1.1-0.23333-1.6-0.4-0.66667-0.23333-1.25-0.55-1.75-0.95-0.13333 0-0.26667-0.0167-0.4-0.05-0.0667 0-0.13333-0.0167-0.2-0.05-0.73333-0.2-1.4167-0.45-2.05-0.75-1.2333-0.53333-2.4667-0.63333-3.7-0.3"/>
<path fill="#2d2d2d" d="m123 112.85c-0.23333 0.33333-0.45039 0.66667-0.65039 1-0.8 2.7667-1.6663 5.5341-2.5996 8.3008-1.5 4.2333-2.0833 8.4988-1.75 12.799 0.3 4.3333 0.81745 8.6337 1.5508 12.9l0.39844 2.3008h0.20117l18.65 3.5488 15.898 3 33.701 6.4004c1.2333 0.33333 2.4504 0.7345 3.6504 1.2012 1.3-3.4333 2.3329-7.0516 3.0996-10.852 0.8-4.2333 1.1663-8.0822 1.0996-11.549-0.1-3.5-0.35-6.5329-0.75-9.0996-0.4-2.6-0.70039-5.2337-0.90039-7.9004-3.5333-0.63333-6.4171-1.1178-8.6504-1.4512-21-3.1-41.882-6.6155-62.648-10.549-0.1 0-0.20078-0.0175-0.30078-0.0508z"/>
<g>
<path d="m177.25 131.25q-2.15 1.45-3.9 3.3 0.15 0.2 0.3 0.4 2.1 2.85 4.75 5.1 1.4 1.2 0.9 2.9-0.1 0.1-0.15 0.15-0.1 0.1-0.25 0.2-0.2 0.1-0.35 0.2-0.25 0.05-0.5 0.15-2.7-1.85-4.75-4.5-0.9-1.15-1.9-2.3-1.4 1.8-2.6 3.65-1.1 1.65-2.75 1.7-0.15-0.1-0.25-0.2t-0.15-0.2q0-0.1-0.05-0.15-0.05-0.1-0.05-0.2t0-0.2q0.8-2.35 2.4-4.2 0.9-1 1.8-2-0.6-0.65-1.2-1.25-2.45-2.55-4.55-5.2-1.05-1.3-1.05-2.75 0.1-0.05 0.15-0.15 0.1-0.1 0.2-0.2t0.25-0.15q0.25-0.05 0.45-0.15h0.05q2.5 1.95 5.1 4.5 1.4 1.4 2.7 2.95 2.15-2.4 4.5-4.55 1.45-1.3 2.95-2.15 0.25 0.05 0.45 0.15 0.15 0.05 0.3 0.15 0.1 0.1 0.15 0.2 0 2.85-2.95 4.8"/>
<path d="m145 123.25q0.15 0.2 0.25 0.4 0.1 0.15 0.15 0.35-1 2.4-2.95 4.15-1.65 1.5-3.15 3.15 0.5 0.45 1.05 0.95 2.4 2.25 4.4 4.65 1.2 1.5 0.45 3-0.1 0.05-0.2 0.1-0.05 0.05-0.1 0.05-0.2 0.05-0.35 0.05-0.25-0.05-0.5-0.1-1.5-2-3.35-3.7-1.6-1.5-3.2-3-0.9 1.05-1.75 2.2-0.85 1.1-1.4 2.4-0.15 0.05-0.3 0.15-0.3 0.1-0.55 0.25-0.55 0.2-1-0.1-0.25-0.15-0.5-0.3 0.45-2.5 2.25-4.65 0.75-0.85 1.45-1.7-1.6-1.55-3.2-3.15-1.35-1.4-2.8-2.65 0-0.1 0-0.2t0.05-0.15q0-0.1 0-0.2 0.05-0.1 0.1-0.2 0-0.1 0.1-0.15 0.15-0.2 0.35-0.3t0.4-0.15v-0.05q2.65 1.6 5 3.65 0.8 0.75 1.65 1.45 0-0.05 0.05-0.1 1.8-2.4 4-4.45 1.35-1.25 2.9-1.95 0.25 0.05 0.45 0.15 0.15 0.05 0.25 0.15z"/>
</g>
<path fill="#6c3f3f" d="m143 148.4c-0.33333 0.2-0.64922 0.41706-0.94922 0.65039-1.2667 1.0333-2.2182 2.3163-2.8516 3.8496l-0.39844 0.79883c-0.36667 0.56667-0.81823 1.0667-1.3516 1.5-0.4 0.3-0.83216 0.55-1.2988 0.75-0.1-0.1-0.21628-0.16589-0.34961-0.19922-4.4-1.6333-7.9174-0.93372-10.551 2.0996-1.9333 2.2-1.9508 4.3841-0.0508 6.5508 3.1 3.5333 7.1678 5.2155 12.201 5.0488 3.9667-0.1 7.5655-1.3326 10.799-3.6992 2.8333-2.0667 4.8004-4.4504 5.9004-7.1504 0.23333-0.63333 0.43294-1.2671 0.59961-1.9004 0.5-1.9333 0.58333-3.9992 0.25-6.1992-0.60386-0.34133-11.407-2.235-11.949-2.0996z"/>
<g fill="#95bac4">
<path d="m112.8 102.45q-0.55 0.15-1.1 0.25-0.3 0.05-0.55 0.1 0.6 2.95 1.4 5.85 0.3 0.9 0.65 1.75 0.95-0.45 1.9-0.8 0.75-0.25 1.6-0.55-0.05-0.35-0.05-0.8-0.1-0.25-0.25-0.5-0.4-1.05-0.75-2.2-0.4-1.2-0.65-2.35-0.15-0.45-0.25-0.95-0.05 0-0.1-0.05-0.35-0.05-0.75 0-0.55 0.15-1.1 0.25"/>
<path d="m131 83.45q-0.05-0.05-0.1-0.05-0.35-0.05-0.75 0-0.55 0.15-1.1 0.25t-1.1 0.25q-0.3 0.05-0.55 0.1 0.6 2.95 1.4 5.85 0.3 0.9 0.65 1.75 0.95-0.45 1.9-0.8 0.75-0.25 1.6-0.55-0.05-0.35-0.05-0.8-0.1-0.25-0.25-0.5-0.4-1.05-0.75-2.25-0.4-1.15-0.65-2.3-0.15-0.45-0.25-0.95"/>
</g>
<path fill="#eb7f7f" d="m154.4 150.55c-0.94273-0.27251-5.0791-0.21382-5.65 0.05-0.33333 0.63333-0.71667 1.3333-1.15 2.1l-1.3 2.4c-0.33333 0.56667-0.65 1.1333-0.95 1.7-0.2 0.3-0.38333 0.6-0.55 0.9-0.96667 1.6667-2.3167 2.9-4.05 3.7-0.96667 0.43333-1.8333 0.31667-2.6-0.35 0.16667-0.1 0.35-0.18333 0.55-0.25 0.46667-0.16667 0.95-0.28333 1.45-0.35 1.2-0.96667 2.2-2.1 3-3.4l0.4-0.6c0.3-0.56667 0.58333-1.1333 0.85-1.7 0.26667-0.63333 0.51667-1.2667 0.75-1.9 0.4-1.1 1-2.0167 1.8-2.75-0.25064-0.31629-2.0796-1.155-2.75-1.05-1.1333 0.73333-1.9833 1.7167-2.55 2.95-0.3 0.7-0.65 1.3833-1.05 2.05-0.36667 0.53333-0.73333 1.05-1.1 1.55-0.36667 0.46667-0.76667 0.91667-1.2 1.35-1.4667 1.4333-3.2333 2.35-5.3 2.75-0.73333 0.13333-1.3667 0.0667-1.9-0.2 0.13333-0.2 0.31667-0.36667 0.55-0.5 0.53333-0.26667 0.88333-0.68333 1.05-1.25 0.0667-0.23333 0.05-0.48333-0.05-0.75-0.0333-0.0667-0.0833-0.13333-0.15-0.2-0.1-0.1-0.23333-0.2-0.4-0.3-0.1-0.0667-0.23333-0.11667-0.4-0.15-0.33333-0.0333-0.66667-0.05-1-0.05-0.0333 0-0.0833 0.0167-0.15 0.05-0.0333-0.0333-0.0667-0.05-0.1-0.05-1.4667 0.1-2.7 0.7-3.7 1.8-0.4 0.4-0.71667 0.86667-0.95 1.4-0.6 1.4667-0.36667 2.75 0.7 3.85 0.66667 1.0667 1.4 1.65 2.2 1.75 1.4333 0.83333 2.9833 1.2667 4.65 1.3 6.8 1.2 12.5-0.63333 17.1-5.5 0.76667-0.8 1.3667-1.7 1.8-2.7 0.26667-0.56667 0.46667-1.1833 0.6-1.85l0.1-0.9c0.2-1.8333 0.68333-3.4667 1.45-4.9z"/>
<path d="m138.8 144.5c3.4333 1.9667 7.1329 3.1992 11.1 3.6992 2.4667 0.33333 4.9492 0.33333 7.4492 0 4.1333-0.56667 8.2341-0.46589 12.301 0.30078 3.9 0.73333 7.3167 2.3671 10.25 4.9004-4-1.9-8.3837-3.0512-13.15-3.4512-2.6333-0.23333-5.2671-0.23333-7.9004 0-1.3 0.1-2.6004 0.26667-3.9004 0.5-5.5458 1.0979-9.1221-0.39675-11.949-2.0488-1.7333-1-3.2159-2.2829-4.4492-3.8496 0-0.0333 0.0833-0.0508 0.25-0.0508z"/>
<path fill="#25282b" d="m231.25 123.35c-0.53333 0-1.0837 0.0174-1.6504 0.0508-1.7 0-3.2833 0.55039-4.75 1.6504-1.5 1.1333-2.8663 2.3833-4.0996 3.75s-2.4833 2.7-3.75 4c-0.96667 1-1.6159 2.1318-1.9492 3.3984-0.0333 0.1 0.0151 0.21823 0.14844 0.35156-0.26667 0.36667-0.51667 0.74844-0.75 1.1484 0.9-1.4 3.4349-2.2663 7.6016-2.5996 0.33333-0.0333 0.66667-0.0488 1-0.0488 0.66667 0 1.3663 0.0659 2.0996 0.19922 3.6667 0.63333 8.1492 2.8 13.449 6.5 0.5 0.33333 0.9845 0.64922 1.4512 0.94922 6.3667 3.9333 12.549 4.2841 18.549 1.0508 6.4333-3.4667 10.35-8.1663 11.75-14.1-0.26667-0.2-0.53216-0.36667-0.79883-0.5-0.43333-0.16667-0.86745-0.30039-1.3008-0.40039-0.23333-0.0667-0.45039-0.15-0.65039-0.25-0.43333-0.23333-0.90039-0.43294-1.4004-0.59961-0.53333-0.16667-1.0663-0.28294-1.5996-0.34961-1.1 0.3-2.0826 0.94922-2.9492 1.9492-0.86667 0.96667-1.7678 1.8833-2.7012 2.75-0.53333 0.53333-1.0992 1.0333-1.6992 1.5-0.26667 0.2-0.48372 0.43255-0.65039 0.69922-0.9-0.23333-1.7992-0.49883-2.6992-0.79883-2.7333-0.9-5.2004-2.3167-7.4004-4.25-2.1-1.8667-4.2492-3.3163-6.4492-4.3496-0.23333-0.13333-0.46784-0.25156-0.70117-0.35156-1.2333-0.56667-2.6829-0.94844-4.3496-1.1484-0.7-0.1-1.4326-0.15039-2.1992-0.15039-0.5-0.0333-1.0174-0.0508-1.5508-0.0508z"/>
<g fill="#51676d">
<path d="m261.75 134.5q-0.2 0.2-0.35 0.4-0.1 0.4-0.25 0.8 0.7 0.45 1.4 0.9 0.8 0.6 1.6 1.25 0.55-0.7 1.05-1.5 1.6-2.6 2.9-5.3-0.25-0.15-0.5-0.25-0.5-0.25-1-0.5t-1-0.5q-0.4-0.15-0.75-0.2-0.05 0-0.1 0-0.2 0.45-0.45 0.85-0.6 1.05-1.25 2.1-0.6 1-1.3 1.95"/>
<path d="m225.6 132.55q0.65 0.15 1.4 0.45 3.3 1.2 9.05 5.3 1.95 1.4 4 2.4 5.3 2.6 11.25 2.45 8.25-0.25 11.55-3.9-0.25-0.1-0.5-0.3-0.4-0.3-0.75-0.6-0.6-0.1-1.1-0.35-0.4-0.2-0.8-0.35-1.05 0.9-2.7 1.5-7.05 2.55-14-0.45-1.45-0.65-2.95-1.3-5.15-2.2-10.5-4.1-1.15-0.4-3.95-0.75"/>
</g>
<path fill="#7ea1aa" d="m220.3 131.85q0.6-0.15 1.25-0.35 1.4-0.35 2.75-0.6 1.2-0.1 2.35 0 1 0.05 1.95 0.2 3.65 0.55 6.85 2.6 2.2 1.4 4.6 2.5 2.9 1.3 6.05 2.15 6.1 1.65 11.15-1.35-0.15-0.1-0.25-0.15-2.1 0.45-4.95-1.35-5.95-3.75-11.9-7.35-0.05-0.05-0.1-0.05-3.55-2.1-6.65-2.7-1.05-0.2-2.05-0.2-6.05-0.15-10.55 5.95-0.25 0.35-0.5 0.7"/>
<path fill="#25282b" d="m250.79 100.49c-0.48281 0.008-0.978 0.0275-1.4863 0.0566-0.53333 0-1.0333 0.0484-1.5 0.14844-0.76667 0.16667-1.5012 0.43411-2.2012 0.80078-0.36667 0.2-0.7155 0.43255-1.0488 0.69922-1.5 1.1333-2.8682 2.3833-4.1016 3.75-0.13333 0.13333-0.26511 0.2845-0.39844 0.45117-1.1 1.2-2.2182 2.3822-3.3516 3.5488-0.96667 1-1.6159 2.1337-1.9492 3.4004-0.0333 0.1 0.0171 0.21628 0.15039 0.34961-0.26667 0.36667-0.51667 0.75039-0.75 1.1504 0.76667-1.2 2.7337-2.0004 5.9004-2.4004 0.33333-0.0667 0.68216-0.11511 1.0488-0.14844 0.2 0 0.41706-0.0175 0.65039-0.0508 0.73333-0.0667 1.5337-0.0492 2.4004 0.0508 3.8 0.46667 8.5171 2.6663 14.15 6.5996 6.8667 4.8 13.533 5.4667 20 2 6.4333-3.4667 10.35-8.1663 11.75-14.1-0.26667-0.2-0.53411-0.36667-0.80078-0.5-0.43333-0.16667-0.86745-0.30039-1.3008-0.40039-0.23333-0.0667-0.44844-0.15-0.64844-0.25-0.43333-0.23333-0.90039-0.43294-1.4004-0.59961-0.53333-0.16667-1.0663-0.28489-1.5996-0.35156-1.1 0.3-2.0845 0.95117-2.9512 1.9512-0.86667 0.96667-1.7659 1.8833-2.6992 2.75-0.53333 0.53333-1.1012 1.0333-1.7012 1.5-0.26667 0.2-0.48177 0.43255-0.64844 0.69922-0.9-0.23333-1.8012-0.49883-2.7012-0.79883-2.7333-0.9-5.2004-2.3167-7.4004-4.25-2.3333-2.0667-4.7151-3.6345-7.1484-4.7012-2.1292-0.9625-4.884-1.4138-8.2637-1.3555z"/>
<g fill="#51676d">
<path d="m280.2 115.15q-0.4-0.2-0.8-0.35-1.05 0.9-2.7 1.5-7.05 2.55-14-0.45-6.6-2.95-13.45-5.4-1.95-0.7-3.95-0.75 3.4 0.7 10.45 5.75 7 5.05 15.25 4.85 8.25-0.25 11.55-3.9-0.25-0.1-0.5-0.3-0.4-0.3-0.75-0.6-0.6-0.1-1.1-0.35"/>
<path d="m284.55 106.75q-0.05 0-0.1 0-0.2 0.45-0.45 0.85-0.6 1.05-1.25 2.1-0.6 1-1.3 1.95-0.2 0.2-0.35 0.4-0.1 0.4-0.25 0.8 0.7 0.45 1.4 0.9 0.8 0.6 1.6 1.25 0.55-0.7 1.05-1.5 1.6-2.6 2.9-5.3-0.25-0.15-0.5-0.25-0.5-0.25-1-0.5t-1-0.5q-0.4-0.15-0.75-0.2"/>
</g>
<path fill="#7ea1aa" d="m240.5 108.3q-0.2 0.3-0.45 0.65l-0.05 0.05h0.05q0.6-0.15 1.2-0.35 1.35-0.35 2.7-0.6h0.05q0.95-0.05 1.9 0 5 0.1 9.25 2.8 4.95 3.15 10.65 4.65 6.1 1.65 11.15-1.35-0.15-0.1-0.25-0.15-2.1 0.45-4.95-1.35-5.95-3.75-11.9-7.35-7-4.25-12.5-2.4-1.05 0.35-2 0.9-2.65 1.5-4.85 4.5"/>
<path fill="#1e1e1e" d="m199.55 73.05q-4-0.6-7.95-1.2-7.75-1.2-15.45-3.05-2.25-0.55-4.55-0.9-3.8 3.8-7.75 7.5-3.45 3.25-7.05 6.4-0.6 0.55-1.25 1.1-13.35 11.75-26.7 23.4-1.5 1.3-3 2.65-0.65 0.8-1.2 1.6 17.5 2.9 35.05 5.55 17.7 2.7 35 7 2.35-2.6 4.85-5.1 2.25-2.2 4.65-4.3 8.7-7.6 17.05-15.75 8.4-8.2 16.85-16.15 0.95-0.9 1.95-1.75 0.6-0.55 1.25-1.05-0.65-0.1-1.25-0.15-1.85-0.3-3.7-0.55-18.4-2.5-36.8-5.25"/>
<g fill="#737171">
<path d="m177.1 81.45q-0.3 0-0.65 0-0.85 0.05-1.7 0.2-0.4 0.05-0.8 0.15 0.6 0.55 1.75 0.85 1.95 0.55 4 0.9 1.6 0.25 3.15 0.55 2.15 0.4 4.25 0-0.3-0.25-0.6-0.45-1.3-0.8-2.45-1.05t-2.1-0.55-2.6-0.45q-1.7-0.2-2.25-0.15zm-1.45 2.4q-1.6-0.5-3-1.3-0.3-0.45-0.1-0.95 0.2-0.4 0.6-0.7 0.6-0.45 1.4-0.55 1.65-0.1 3.15-0.25 4.2 0.3 7.55 1.45 3.3 1.1 3.4 2.4 0.05 1.25-2.6 1.65-2.7 0.35-6.75-0.65-1.85-0.45-3.65-1.1m-5.2 2.1q-0.35 0.1-0.6 0.4-0.25 0.25-0.3 0.6 0.35 0.65 1.05 1 2.25 1 4.7 0.45 0.7-0.15 1.15-0.8 0.1-0.15 0.15-0.3-0.05-0.3-0.45-0.45-1-0.35-2.05-0.8t-2.25-0.45q-0.35 0.05-0.75 0.15-0.3 0.1-0.65 0.2m2.5-1.6q0.25 0 0.4-0.05 2.2 0.4 4.35 0.85 1.3 0.25 3.55 1.4t2.3 2.2-0.85 1.6q-0.95 0.55-2 0.2 0-0.05 0-0.15t0.05-0.2q0.05-0.2 0.3-0.3 0.1-0.1 0.25-0.15 0.05-0.05 0.15-0.1 0.15-0.1 0.25-0.2 0.25-0.15 0.5-0.3-0.25-0.25-0.4-0.55-0.2-0.35-0.6-0.6-0.75-0.4-1.5-0.8-0.45-0.25-0.95-0.35-0.6-0.2-0.8 0.1 0.05 1.35-1.25 2.1-3.65 1.95-7.1-0.4-2.55-1.7-0.05-3.4 1.5-1 3.4-0.9m5.6-7.2q-0.2 0.05-0.35 0.05-0.25 0.05-0.55 0.05-0.3 0.05-0.55 0.1-0.4 0.15-0.4 0.3 1.75 0.7 3.65 1.1 2.35 0.5 4.75 0.95 2.2 0.4 4.45 0-0.85-0.8-2.3-1.3t-4.05-1.05-4.65-0.2m-0.95 2q-3.05-1.3-2.35-2.15 0.7-0.9 2.75-1 2.05-0.15 4.55 0.2 5 0.4 7.15 2t0.3 2.6q-1.85 0.95-4.4 0.5-5-0.85-8-2.15m-11.8 17q0.1-0.15 0.2-0.25 0.45-0.35 0.95-0.7 0.1-0.1 0.2-0.2 0.2-1.2-1.05-1.3-2.85-0.2-4.75 2-0.05 0.1-0.1 0.15 0.3-0.05 0.6-0.05 2 0.05 3.95 0.35m2.6-2.9q0.9 1.1 0.15 2.3-0.3 0.55-0.7 1 1.5 0.25 3.5 0.65 1.95 0.35 4.2 0.45 1.95 0.05 1.95 0.75 0 0.1-0.05 0.25-0.1 0.85-3.8 0.3-2.05-0.3-3.65-0.55-1.3-0.2-2.3-0.35-2.9-0.4-5.8-0.6-1.1-0.05-1.9-0.4-0.1 0.05-0.15 0.1-1.15-0.6-0.1-1.65 1.4-1.45 3.1-2.4 1.6-0.95 3.35-1.05 1.4 0.15 2.2 1.2m-0.35-5.3q0.15 0.1 0.2 0.2 0.05 0.05 0.1 0.15 0 0.1 0 0.2-0.1 0.25-0.3 0.3-0.45 0.05-0.7 0.45-0.05 0.1-0.15 0.25-0.05 0.05-0.05 0.1 1.25 2.1 3.7 2.95 1.1 0.4 2.2 0.85 3.4 1.35 5.75-0.85 0.25-0.2 0.15-0.6-0.05-0.2 0.1-0.35 1.85 0.3 0.55 2.1-0.85 1.2-2.3 1.3-4.25 0.45-8-1.4-2.55-1.3-3.25-3.8-0.2-0.65 0.35-1.25 0.55-0.55 1.2-0.7 0.15 0 0.25 0.05 0.15 0 0.2 0.05"/>
<path d="m402.5 109.6q-0.3-0.1-0.55-0.15-6.45-1.45-6.55-1.45-2.35-0.65-4.65-1.3-2.05-0.55-4.15-0.5v0.05q-0.35 0-0.75 0.05-0.1 0-0.25 0.05-0.05 0.05-0.1 0.1-0.05 0.1-0.1 0.2 2.45 0.75 5.45 1.45 0.4 0.05 0.75 0.2 0.8 0.25 1.6 0.5-0.55 0.4-1 0.9-0.35 0.4-0.8 0.65-0.2 0.15-0.35 0.35-1.4-0.25-2.85-0.35-1.55-0.15-3.1-0.45-0.15 0.05-0.3 0.05-1.25 0.65 0.8 1.1 2.15 0.45 5.5 1 3.3 0.55 6.35 1.15 3 0.65 3.65-1-4.1-0.45-8.55-1.25 0.3-0.3 0.6-0.55 0.6-0.5 1.2-0.95 0.2-0.15 0.3-0.25 5.35 1.35 6.8 1.2 1.4-0.2 1.05-0.8m-7.6-7q0.05 0.15 0.15 0.25 0.15 0.05 0.3 0.05t0.25-0.05q0.05 0 0.05-0.05 0.05-0.05 0.1-0.1 0.05-0.1 0.1-0.2 0-0.15 0.05-0.2 2.8-0.85 6.75 0.25 1.6 0.45 3.15 0.9 0.15 0.05 0.25 0.1-0.1 0-0.7 0.85t-2.15 1.05q-1.6 0.2-4.25-0.2-2.65-0.45-4.3-0.75-2-0.4-4.05-0.6-0.1 0.05-0.35 0.15-0.1 0.05-0.15 0.1-0.05 0.1-0.05 0.2 0 0.05 0 0.15t0 0.2 0 0.2 0.05 0.15q0.05 0.1 0.15 0.2 0.05 0.1 0.1 0.2 0.05 0.2 0.15 0.4 0 0.05 0.05 0.15 0 0.1 0.05 0.2t0.15 0.15q0.3 0.2 0.6 0.35 0.15-0.05 0.25-0.1 0.05 0 0.05-0.05 0.05-0.05 0.1-0.1 0.05-0.1 0.05-0.2 0.05-0.1 0.05-0.15l0.15-0.35q0.45-0.65 2.6-0.15t5.85 0.9q3.7 0.35 2.15 0.35-0.5 0.65 0.05 1.25 0.7 0.3 1.2-0.25 0.6-0.65 1.2-1.35 0.55-0.6 1.25-1.1 0.2-0.15 0.35-0.25 0.1-0.05 0.2-0.15 0.65-0.55 1.25-1.1 0.65-0.55 1.25-1.1 0.8-0.8-0.25-1.2-0.1 0-0.25 0.05-0.6 0.1-1.05 0.5-0.85-0.25-1.9-0.3-1.7-0.1-3.4-0.5t-3.5-0.6q-1.75-0.15-3.4-0.35-0.5 0.05-1 0.1-0.15 0-0.3 0.1-0.1 0.05-0.2 0.15 0 0.1 0 0.2t0.05 0.15q0.05 0.15 0.1 0.25 0.05 0.05 0.1 0.15t0.1 0.2 0.1 0.2q0 0.1 0.05 0.15 0.05 0.1 0.15 0.2 0.05 0.1 0.05 0.2 0.05 0.1 0.1 0.15m17.55-4.45q-0.2 0.3-0.45 0.55-0.2 0.2-0.4 0.4-0.2 0.15-0.35 0.35-0.2 0.2-0.4 0.4-0.2 0.15-0.35 0.35-1.2 0.1-2.35-0.2-1.5-0.35-3.05-0.75-1.75-0.5-3.5-1.05-1.7-0.55-3.5-0.75-0.45-0.05-0.4 0.05 0.6 1.45 2.95 2.05 3.05 0.75 6.15 1.65 2.4 0.7 4.3-0.45 1.4-0.9 2.8-1.9 0.05-0.1 0.1-0.2 0-0.1 0-0.2t0-0.2q-0.05-0.1-0.1-0.15-0.1-0.1-0.15-0.2-0.35-0.05-0.65-0.1-0.4 0-0.65 0.35m-4.55-3.55q0.75 0.2 1.5 0.3 2.6 0.35 5.2 0.95 0 0.05-0.05 0.05-0.05 0.1-0.05 0.2 0 0.05 0 0.15 0 0.2 0 0.4 0 0.1 0 0.15 0 0.1 0.05 0.2 0.1 0.1 0.2 0.2 0.6 0.3 1-0.2 0.6-0.7 1.25-1.4 0.75-0.7 1.5-1.4 0.95-0.9-0.4-1.1-0.15 0-0.4 0.2-0.5 0.35-0.95 0.65-0.35 0.3-0.7 0.65-0.6-0.4-1.4-0.5-2-0.3-3.95-0.4-1.8-0.1-3.6-0.4-2-0.35-4-0.55v0.05q-0.25 0.05-0.45 0.15-0.25 0.15-0.4 0.35 0 0.05 0 0.15t0 0.2 0.05 0.2q0.05 0.15 0.15 0.35 0.05 0.1 0.1 0.2 0 0.1 0.05 0.15 0.05 0.1 0.15 0.2 0.05 0.1 0.1 0.2t0.05 0.2 0.05 0.15q0.05 0.1 0.1 0.2 0.15 0.1 0.3 0.1 0.15 0.05 0.25 0 0.15 0 0.3-0.15 0.05-0.05 0.1-0.1 0-0.1 0-0.2t-0.1-0.2q0.5-1.2 4-0.35z"/>
</g>
<path fill="#a3aeba" d="m465.7 95.95c-0.0667-0.16667-0.11667-0.33333-0.15-0.5-1.2 1.1-1.9833 1.8167-2.35 2.15-5.8 5.2667-11.567 10.683-17.3 16.25-5.2333 5.1333-10.517 10.167-15.85 15.1l-1.5 1.4c-3.1667 2.9667-6.8167 6.2667-10.95 9.9 0.86667 3.5 1.4167 7.1667 1.65 11 0.26667 4.3667 0.13333 8.7333-0.4 13.1-0.5 4.3333-1.2667 8.6167-2.3 12.85-0.2 0.73333-0.45 1.3833-0.75 1.95 3.5667-1.6 6.8-3.9833 9.7-7.15l5-5.5 5.85-6.5c2.8667-3.2667 5.7167-6.5167 8.55-9.75l9-10.7c1.1-1.4333 2.2-2.85 3.3-4.25l6.95-9.45c0.3-0.46667 0.6-0.91667 0.9-1.35 1.2-1.7333 1.9333-3.6333 2.2-5.7 1.1-7.8333 0.58333-15.45-1.55-22.85z"/>
<path fill="#25282b" d="m458.15 122.85c-0.83333 0.33333-1.6337 0.78294-2.4004 1.3496-0.73333 0.53333-1.5008 1.0508-2.3008 1.5508-0.53333 0.3-1.0159 0.66628-1.4492 1.0996-0.0667 0.0667-0.11706 0.15-0.15039 0.25h-0.0488v1.8496 0.60156c0.0333 1.1 0.0333 2.1833 0 3.25 0.9 0.2 1.8167 0.34922 2.75 0.44922 0.66667 0.0667 1.2326 0.34961 1.6992 0.84961 0.36667 0.36667 0.68255 0.76784 0.94922 1.2012 0.4 0.56667 0.73333 1.1984 1 1.8984 0.46667 1.2333 0.66823 2.6171 0.60156 4.1504-0.13333 3.8-0.46667 7.5674-1 11.301-0.43333 2.8 0.24883 5.1333 2.0488 7 0.8 0.83333 1.6333 1.3663 2.5 1.5996 0.13333 0.0667 0.2845 0.13255 0.45117 0.19922 0.56667 0.2 1.1655 0.28333 1.7988 0.25 0.33333 0 0.63372-0.0484 0.90039-0.14844 0.56667 0.0333 1.0996-0.18372 1.5996-0.65039 0.73333-0.66667 1.4329-1.3508 2.0996-2.0508 0.56667-0.56667 1.15-1.1326 1.75-1.6992v-0.0996c0.0333-0.0667 0.0508-0.15 0.0508-0.25 0.0667-0.43333 0.0841-0.85 0.0508-1.25 0-0.43333 0.0329-0.86745 0.0996-1.3008 0.0333-0.23333 0.0159-0.41745-0.0508-0.55078v-0.34961c-0.1-0.0333-0.19883-0.0488-0.29883-0.0488-0.0667 0-0.11706-0.0175-0.15039-0.0508-0.1 0-0.16784 0.0175-0.20117 0.0508-0.66667-0.0667-1.3488-0.23333-2.0488-0.5-0.2-0.0667-0.38411-0.16745-0.55078-0.30078-0.1-0.0333-0.18333-0.0508-0.25-0.0508-0.76667-0.13333-1.2337-0.5655-1.4004-1.2988-0.66667-3.1-0.66667-6.2667 0-9.5 0.8-3.9 0.78447-7.7508-0.0488-11.551-0.13333-0.66667-0.31745-1.2829-0.55078-1.8496-0.4-0.9-0.88255-1.7004-1.4492-2.4004-1.4-1.6-3.4-2.6-6-3z"/>
<g fill="#51676d">
<path d="m470.05 156.25q0.1-0.65 0.1-1.3 0-0.4 0.05-0.7-0.85 0.45-1.6 1.05-0.9 0.8-2 1.35 0.05 0.05 0.1 0.05 0.2 0.65 0.1 1.4t-0.1 1.6q0 0.1 0 0.2 0.25-0.25 0.5-0.5 1.1-1.1 2.25-2.1 0.3-0.25 0.65-0.55-0.1-0.25-0.05-0.5"/>
<path d="m458.05 134.2q0.7 0.8 1.1 1.9 0.45 1.1 0.55 2.55 0.5 5.45-0.3 10.8-0.6 4.25 0.5 8.2 0.35 1.3 1.65 1.9 0.6 0.3 1.25 0.5 0.75 0.2 1.6 0.35 0.4-0.1 0.8-0.1 0-0.15 0-0.3 0.1-0.65 0.1-1.3 0-0.55 0.1-1-1.7-0.15-2.6-1.3-0.6-0.75-0.9-1.9-0.95-3.65-0.5-7.45 0.65-5.6-0.05-11.15-0.1-0.95-0.4-1.8-0.4-1.25-1.15-2.2-1.35-1.7-3.7-2.7-0.35-0.15-0.65-0.25-1.55-0.55-3.1-0.9 0.1 0.35 0.15 0.8 0 0.05 0 0.1 0.05 0.55 0.1 1.1 0 0.6 0 1.2 0 0.3 0 0.6 3.65 0.2 5.45 2.35z"/>
</g>
<path fill="#95bac4" d="m466 156.5q0.65-1 1.85-1.7 0.65-0.4 1.35-0.8-2.25-0.1-3.8-2.05-0.6 0.45-1 1.05-0.45 0.55-1 1-0.1 0.1-0.2 0.15 0.25 0.7 0.6 1.4 0.45 0.9 1.5 0.85 0.35 0 0.7 0.1z"/>
<path fill="#7ea1aa" d="m463.25 127.1q-0.05-0.15-0.15-0.3-0.65-1.15-1.85-1.8-1.35-0.7-2.85-1.15-0.6 0.4-1.2 0.85-0.7 0.55-1.45 1-1.15 0.7-2.15 1.55-0.1 0.1-0.15 0.15 2.3 0.45 4.2 1.55 1.45 0.9 2.65 2.25 0.75 0.9 1.4 2.05 0 0.05 0.05 0.1 0.8 1.5 1.05 3.15 0.05 0.2 0.05 0.4 0.4 4.55-0.05 9.05-0.1 0.9-0.2 1.8-0.35 2.6 0.2 5 0.05 0.25 0.15 0.55 0.05-0.05 0.15-0.15 0.5-0.5 0.95-1 0.4-0.4 0.75-0.9 0-0.05 0.05-0.05-0.45-0.8-0.4-1.85 0.35-5.7 1-11.35 0.5-4.3-0.9-8.15-0.5-1.4-1.3-2.75z"/>
<g fill="#25282b">
<path d="m426.5 154.7v0.10156c-0.33333 0.0333-0.64922 0.0817-0.94922 0.14844-0.2 0-0.36667 0.0679-0.5 0.20117l-0.40039 0.29883c-0.1 0.13333-0.18333 0.26706-0.25 0.40039-0.0333 0.13333-0.0837 0.24961-0.15039 0.34961l-0.19922 0.40039c-0.0667 0.13333-0.10156 0.26706-0.10156 0.40039-0.0333 0.1-0.0488 0.21628-0.0488 0.34961v0.0996c-0.63333 0.76667-0.31745 1.7008 0.94922 2.8008 2.1333 1.9 4.0171 3.9833 5.6504 6.25 0.46667 0.63333 0.91628 1.2826 1.3496 1.9492 0.33333 0.53333 0.65117 1.0837 0.95117 1.6504 1.7 3.1 1.6651 6.2512-0.10156 9.4512-1.5333 2.7-3.6496 4.6826-6.3496 5.9492 0.0573 0.94993 4.2805 6.0015 5.3008 6.0996 0.6-0.33333 1.1833-0.68216 1.75-1.0488 0.73333-0.53333 1.4155-1.1167 2.0488-1.75 0.46667-0.46667 0.86784-0.98411 1.2012-1.5508 0.33333-0.6 0.83333-0.98372 1.5-1.1504 0.73333-1.5667 1.4504-3.1655 2.1504-4.7988 1.5-3.5 1.9496-7.2345 1.3496-11.201-0.5-3.2333-1.75-6.0492-3.75-8.4492-0.43333-0.53333-0.90039-1.0333-1.4004-1.5l-0.15-0.15c-2.8-2.6667-6.0829-4.4341-9.8496-5.3008z"/>
<path d="m446.55 135.15c-0.63333 0.23333-1.2671 0.54922-1.9004 0.94922-1 0.6-1.9671 1.2163-2.9004 1.8496-0.86667 0.56667-1.7504 1.1171-2.6504 1.6504-0.4 0.23333-0.58216 0.55117-0.54883 0.95117l0.14844 0.14844c-0.0333 0.0667-0.0488 0.16745-0.0488 0.30078 0 0.56667-0.0175 1.1326-0.0508 1.6992-0.0333 0.6-0.0333 1.2008 0 1.8008 0.0333 0.5 0.13411 1 0.30078 1.5 0.46667 0.26667 0.96667 0.46628 1.5 0.59961 0.46667 0.13333 0.91628 0.35039 1.3496 0.65039 1.3 0.83333 2.3504 1.8333 3.1504 3 0.36667 0.5 0.68255 1.0504 0.94922 1.6504 0.6 1.4333 0.88294 3.0826 0.84961 4.9492-0.1 4.1667-0.35 8.3178-0.75 12.451-0.2 2.0333 0.31745 3.7155 1.5508 5.0488 0.0333 0.0333 0.0663 0.0837 0.0996 0.15039 0.76667 1.0333 1.7667 1.8337 3 2.4004 1 0.46667 2 0.91628 3 1.3496 1.1667 0.53333 2.2345 0.66706 3.2012 0.40039 0.1 0.16667 0.26667 0.30039 0.5 0.40039 0.53333-0.13333 0.98294-0.41823 1.3496-0.85156 0.76667-0.9 1.5826-1.7333 2.4492-2.5 1-0.9 1.3663-1.9833 1.0996-3.25-0.23333-1.1-0.43294-2.1833-0.59961-3.25l-0.0488-0.0488c0-0.16667-0.0349-0.31784-0.10156-0.45117-0.76667-0.2-1.6155-0.28333-2.5488-0.25-1.0333 0.0667-1.9171-0.24922-2.6504-0.94922-1.5333-1.4-2.0333-3.2508-1.5-5.5508 0.96667-4.1667 1.5171-8.3818 1.6504-12.648 0.0667-2.1667-0.21628-4.2674-0.84961-6.3008-0.2-0.66667-0.45-1.3004-0.75-1.9004-0.26667-0.56667-0.56706-1.0822-0.90039-1.5488-1.6667-2.4-4.1163-3.8671-7.3496-4.4004z"/>
</g>
<g fill="#51676d">
<path d="m461.25 172.1q-0.25-0.8-0.35-1.6-0.05 0.05-0.1 0.1-0.6 0.7-1.15 1.45t-1.15 1.55q-0.55 0.75-1.15 1.4 0 0.15 0.05 0.35 0.05 0.45 0.05 0.85 0 0.45 0.05 0.85 0 0.35 0.05 0.65 1.35-1.35 2.95-2.7 1.35-1.2 0.75-2.9"/>
<path d="m447.9 146.85q-0.05-0.1-0.1-0.2-1.05-2.3-3.3-3.35-2.5-1.2-4.85-2.25 0 0.2 0 0.45 0 0.65 0 1.3 0.05 0.65 0 1.3-0.05 0.45 0.05 0.85 4.25 1.05 6.2 4.2 0.45 0.75 0.8 1.65 0.45 1.3 0.65 2.85 0.7 5.95 0.05 11.95-0.4 3.95 0.8 7.65 0.2 0.6 0.75 0.95 3.5 2.3 7.6 2.8-0.05-0.25-0.05-0.55-0.05-0.65-0.15-1.4-0.05 0-0.15 0-1.2-0.05-2.4-0.3-0.4-0.1-0.75-0.25-2.15-0.45-3.85-2.3-0.1-0.05-0.2-0.05 0-0.05 0.05-0.1-0.1-0.1-0.15-0.2-0.8-0.9-0.75-2.15 0.25-6.7 1.1-13.3 0.5-4.15-0.7-7.85-0.3-0.85-0.65-1.7"/>
</g>
<path fill="#95bac4" d="m454.45 167.85q-0.15 0.2-0.4 0.35-1 0.85-1.9 1.9-0.8 0.9-1.8 1.7 0.25 0.25 0.65 0.4 3.1 1.1 6 1.9-0.2 0.1-0.4 0.15 0.2 0 0.45-0.05 0.1-0.1 0.15-0.2 0.2-0.4 0.5-0.85 0.3-0.4 0.45-0.8 0.2-0.55 0.55-0.95 0.35-0.45 0.75-0.9 0.25-0.35 0.55-0.6-3.15 0.2-5.55-2.05"/>
<path fill="#7ea1aa" d="m452.95 140.75q-1.65-2.3-4.55-3.9-1.9-1.05-3.75 0.35-2.1 1.65-4.25 3.25 5.45 1.05 8.3 5.45 0.45 0.7 0.8 1.5 0.05 0 0.05 0.05 0.75 1.55 0.8 3.25 0.25 6.7-0.75 13.2-0.55 3.6 0.4 6.9 0.15-0.15 0.35-0.3 1.05-0.7 1.95-1.65 0.8-0.85 1.5-1.8-0.65-1.1-0.5-2.45 0.8-7.5 1.65-14.95 0.45-4.25-1.1-7.4-0.4-0.8-0.9-1.5"/>
<path fill="#393b3e" d="m427.65 156.35c-0.36667 0.0333-0.73333 0.11667-1.1 0.25-0.2 0.0333-0.36667 0.11667-0.5 0.25-0.3 0.23333-0.56667 0.5-0.8 0.8-0.0667 0.1-0.11667 0.2-0.15 0.3 0 0.0667-0.0167 0.13333-0.05 0.2 2.2333 2.3667 4.5 4.65 6.8 6.85 0.2 0.16667 0.4 0.35 0.6 0.55 0.36667 0.36667 0.71667 0.73333 1.05 1.1 2.2667 2.7 2.9 5.9 1.9 9.6-1 3.8333-2.95 7.0167-5.85 9.55-0.4 0.33333-0.78333 0.61667-1.15 0.85-0.0627 0.39829 2.1786 2.9531 2.55 3.05 1-1.1 2.1333-2.1667 3.4-3.2 2.4667-1.9667 4.1667-4.45 5.1-7.45 1-3.3333 1-6.7167 0-10.15-0.6-2.0667-1.5-4.0333-2.7-5.9-0.23333-0.4-0.48333-0.78333-0.75-1.15-0.33333-0.13333-0.61667-0.3-0.85-0.5-0.16667-0.16667-0.31667-0.33333-0.45-0.5-0.46667-0.56667-1.0167-1.05-1.65-1.45l-2.4-1.5c-0.86667-0.53333-1.7833-1.0167-2.75-1.45-0.1-0.0333-0.18333-0.0667-0.25-0.1"/>
<path fill="#6d6363" d="m393.1 176.15c-0.8-0.0333-1.5171 0.18372-2.1504 0.65039-0.26667 0.2-0.53216 0.45-0.79883 0.75-0.6 0.73333-1.0671 1.5492-1.4004 2.4492-0.26667 0.73333-0.41589 1.4833-0.44922 2.25-0.0333 0.0667-0.0508 0.13255-0.0508 0.19922-0.0667 0.66667-0.00078 1.3178 0.19922 1.9512 0.33333 1.0333 0.88372 1.8822 1.6504 2.5488-1.0667 0.73333-2.0337 1.65-2.9004 2.75-2.0667 2.6-3.0163 5.4837-2.8496 8.6504 0.0333 0.66667 0.14961 1.2829 0.34961 1.8496 0.36667 1.0667 1.0682 1.9504 2.1016 2.6504 0.0667 0.0333 0.11511 0.0663 0.14844 0.0996 0.93333 1.0333 2.0341 1.4674 3.3008 1.3008 1.6 0.16667 3.2008-0.35078 4.8008-1.5508l0.59961-0.5c1.2 2.3333 3.1496 3.1008 5.8496 2.3008 0.8-0.23333 1.3659-0.58411 1.6992-1.0508 0.16667 0.43333 0.38372 0.81706 0.65039 1.1504 0.0333 0.0667 0.0837 0.15 0.15039 0.25l0.30078 0.20117c0.3 0.23333 0.63333 0.43294 1 0.59961 0.96667 0.4 2.1818 0.48333 3.6484 0.25 2.1667-0.33333 3.8837-1.3004 5.1504-2.9004 1.2 1.3 3.0333 1.9163 5.5 1.8496 2-0.0667 3.6996-0.74883 5.0996-2.0488 0.9-0.83333 1.6171-1.7016 2.1504-2.6016 0.26667-0.5 0.50117-1 0.70117-1.5 0.3-0.1 0.61589-0.21628 0.94922-0.34961 2.3667-0.86667 3.5004-2.4829 3.4004-4.8496-0.0333-0.66667-0.11667-1.3004-0.25-1.9004l-0.70117-1.9004c-0.5-0.93333-1.1822-1.7996-2.0488-2.5996-0.16667-0.16667-0.33333-0.31589-0.5-0.44922l-2.05-1.15c-1.17-0.43-2.45-0.57-3.85-0.4v0.0996c-0.26667 0.1-0.54961 0.18333-0.84961 0.25-0.4 0.0667-0.78372 0.16745-1.1504 0.30078-1.0667-0.66667-2.2004-1.2171-3.4004-1.6504-4.2-0.13333-8.5004-0.76706-12.9-1.9004-1.8333-0.46667-3.4826-1.2651-4.9492-2.3984-0.6-0.43333-1.2008-0.85-1.8008-1.25-0.33333-0.2-0.63177-0.40156-0.89844-0.60156-0.63333-0.46667-1.1837-0.96667-1.6504-1.5-0.6-0.13333-1.2008-0.23216-1.8008-0.29882z"/>
<g fill="#bab7b7">
<path d="m426 191.05q1.9 2.75 1.9 5.3 3.55-1.8 1.25-5.7-2.35-4-6.3-3.1 1.75 1.5 3.15 3.5"/>
<path d="m395.65 192.2q-2.2 3.5-2.8 4.1-2 2.15-5.05 2.15-0.05 0.15-0.1 0.35-0.25 1.15-0.1 1.4 0.3 0.7 0.8 1.25 0.45 0.15 0.85 0.3 2.05 0.7 3.55-0.6 0.6-0.45 1.2-0.95 0.35-0.25 0.7-0.55 0.05-0.05 0.1-0.05-0.05-0.45-0.1-0.9-0.2-3.35 0.95-6.5"/>
<path d="m414.6 197.45q0.15-0.15 0.35-0.25 0.85 1.45 0.55 3-0.1 0.45-0.3 0.9 3.7 1.45 7.6-0.25 0.6-0.25 1.05-0.65 0.65-0.6 0.95-1.5 0.1-0.15 0.2-0.35 0.05-0.1 0.1-0.2 0.2-0.4 0.45-0.75-0.35-1.75-1.1-3.25-0.3 1.25-1.7 2.05-1.3 0.75-2.85 0.75-2.55 0-4.65-0.5-1.6-0.4-2-0.75h-0.5q-0.25 3.05-2.6 6.25-1.65 2.2-3.65 3.2 1.45 0.4 3.25-0.9 2.35-1.7 3.85-4.05 0.3-0.5 0.6-1.05 0.5-0.85 0.4-1.7"/>
<path d="m403.15 197q-0.35 0.3-0.7 0.55-2.25 1.65-3.7 1.65-0.25 0-1.25-0.35 0.1 0.3 0.4 1.45 0.35 1.55 1.15 2.5t2.35 0.35q0.7-0.4 1.15-1.05t0.5-1.35q0.05-0.9 0.1-3.75"/>
</g>
<g fill="#fff">
<path d="m394 187.8c-1.4667 1-2.7 2.2167-3.7 3.65l-0.6 0.9-0.05 0.05c-1.1333 1.4333-1.75 3.0167-1.85 4.75-0.0667 0.33333-0.0833 0.66667-0.05 1v0.3h0.05c2.0333 0 3.7167-0.71667 5.05-2.15 0.4-0.4 1.3333-1.7667 2.8-4.1 0.13333-0.36667 0.28333-0.71667 0.45-1.05v-0.1c0.63333-1.3667 1.9667-2.8 4-4.3-0.16667-0.0333-0.31667-0.05-0.45-0.05-2-0.26667-3.4167-0.16667-4.25 0.3-0.83333 0.46667-1.3 0.73333-1.4 0.8"/>
<path d="m395.7 180c-0.1-0.23333-0.21667-0.45-0.35-0.65-0.3-0.46667-0.7-0.83333-1.2-1.1-0.46667-0.26667-0.98333-0.36667-1.55-0.3-0.5 0.2-1 0.93333-1.5 2.2-0.0333 0.0333-0.0667 0.1-0.1 0.2-0.26667 0.86667-0.25 1.75 0.05 2.65 0.3 0.86667 0.85 1.5 1.65 1.9 0.23333 0.13333 0.43333 0.3 0.6 0.5 0.5-0.2 1.0167-0.35 1.55-0.45h0.5c0.83333 0.0333 1.6667 0.05 2.5 0.05 0.9 0.0333 1.7833 0.18333 2.65 0.45 0.33333 0.1 0.65 0.21667 0.95 0.35l0.05-0.05v0.05c0.53333 0.2 1.0833 0.41667 1.65 0.65 0.2 0.1 0.36667 0.21667 0.5 0.35 0.73333 0 1.45 0.0667 2.15 0.2 1.1667 0.23333 2.3 0.55 3.4 0.95 1.0667 0.4 2.0167 0.95 2.85 1.65-0.93333-0.26667-1.85-0.5-2.75-0.7l-3-0.7c-1.0667-0.26667-2.1333-0.36667-3.2-0.3v0.05c-0.83333 0.0667-1.6167 0.26667-2.35 0.6-0.26667 0.13333-0.51667 0.28333-0.75 0.45h-0.05l-0.2 0.1c-0.1 0.0667-0.16667 0.13333-0.2 0.2 0 0.0333-0.0167 0.0667-0.05 0.1-0.0667 0.0667-0.13333 0.15-0.2 0.25-0.13333 0.2-0.25 0.41667-0.35 0.65-0.1 0.13333-0.15 0.3-0.15 0.5-0.6 1.3-1.05 2.65-1.35 4.05-0.33333 1.4333-0.35 2.75-0.05 3.95h0.05v-0.1l0.05 0.15c0.66667 0.23333 1.0833 0.35 1.25 0.35 0.96667 0 2.2-0.55 3.7-1.65 0.23333-0.16667 0.46667-0.35 0.7-0.55 0.33333-0.93333 0.8-1.8167 1.4-2.65 0.2-0.26667 0.41667-0.51667 0.65-0.75 0.0667-0.1 0.13333-0.16667 0.2-0.2 0.86667-0.83333 1.85-1.4167 2.95-1.75 1.2 0 2.4 0.11667 3.6 0.35 1.1667 0.23333 2.2667 0.56667 3.3 1 1.1 0.46667 2.2333 0.91667 3.4 1.35 0.76667 0.26667 1.2667 0.71667 1.5 1.35-0.0333 0.33333-0.2 0.5-0.5 0.5h-0.35c-0.0333-0.0333-0.0667-0.05-0.1-0.05-1.0333-0.3-2.0333-0.71667-3-1.25-1-0.53333-2.0167-0.98333-3.05-1.35s-2.1333-0.41667-3.3-0.15c-1.1667 0.2-2.1333 0.81667-2.9 1.85-1.1333 1.5333-1.9 3.1833-2.3 4.95-0.16667 0.73333-0.26667 1.4833-0.3 2.25-0.0333 0.63333 0.11667 1.15 0.45 1.55 0.53333 0.6 1.1 0.98333 1.7 1.15 1.3333-0.66667 2.55-1.7333 3.65-3.2 1.5667-2.1333 2.4333-4.2167 2.6-6.25h0.5c0.26667 0.23333 0.93333 0.48333 2 0.75 1.4 0.33333 2.95 0.5 4.65 0.5 1.0333 0 1.9833-0.25 2.85-0.75 0.93333-0.53333 1.5-1.2167 1.7-2.05-0.63333-1.2667-1.4333-2.4333-2.4-3.5-0.4-0.4-0.8-0.78333-1.2-1.15-1.1333-0.8-2.4167-1.45-3.85-1.95-2.1-0.76667-4.25-1.3167-6.45-1.65-2.8667-0.43333-5.6833-1.0833-8.45-1.95-2.7-0.83333-4.8333-2.15-6.4-3.95"/>
<path d="m392.55 139.75c-0.96667-0.2-1.9333-0.25-2.9-0.15-4.6 3.5-6.6667 8.0167-6.2 13.55 0-0.26667 0.0333-0.51667 0.1-0.75 0.43333-1.8333 1.3833-3.3167 2.85-4.45 0.76667-0.6 1.6333-0.93333 2.6-1 2.2 0.0333 3.7833 0.98333 4.75 2.85 0.73333 1.4 1.0667 2.8833 1 4.45-0.0333 1.3333-0.41667 2.45-1.15 3.35 0.16667-0.0333 0.35-0.05 0.55-0.05l1.1-0.2c0.23333-0.0333 0.48333-0.0667 0.75-0.1 1.6667-1.3 2.85-3.25 3.55-5.85 1.6-6.3333-0.73333-10.217-7-11.65"/>
<path d="m365.5 145.25c0.53333-0.0667 1.0333-0.1 1.5-0.1 2.2 0.46667 3.6667 1.8 4.4 4 0.3 0.86667 0.43333 1.6833 0.4 2.45 0.76667-1.4667 1.0833-3.25 0.95-5.35-0.43333-6.4333-3.7667-10.033-10-10.8-0.53333 0.13333-1.0167 0.31667-1.45 0.55h-0.05c-0.4 0.16667-0.78333 0.41667-1.15 0.75v0.15c-0.8 0.7-1.3667 1.6333-1.7 2.8-0.7 2.4333-0.86667 4.7167-0.5 6.85 0.33333 2.3667 1.2833 4.5333 2.85 6.5 0.0667 0.1 0.13333 0.18333 0.2 0.25-0.1-0.26667-0.15-0.58333-0.15-0.95 0-1.2333 0.18333-2.4167 0.55-3.55 0.63333-2.0667 2.0167-3.25 4.15-3.55z"/>
</g>
<g fill="#fafafa">
<path d="m388.4 148.8q-1.95 0.2-2.65 2.05t1.1 2.55q1.8 0.75 3.05-1.55 1.2-2.3-1.5-3.05"/>
<path d="m364.75 151.45q2.05 0.35 2.7-2.2 0.6-2.55-2.3-2.35-1.75 0.35-2.05 2.1-0.4 2.05 1.65 2.45z"/>
</g>
</g>
</g>
</svg>
